%TF.GenerationSoftware,KiCad,Pcbnew,7.0.9*%
%TF.CreationDate,2023-12-17T20:03:05-08:00*%
%TF.ProjectId,schematic,73636865-6d61-4746-9963-2e6b69636164,rev?*%
%TF.SameCoordinates,Original*%
%TF.FileFunction,Drillmap*%
%TF.FilePolarity,Positive*%
%FSLAX45Y45*%
G04 Gerber Fmt 4.5, Leading zero omitted, Abs format (unit mm)*
G04 Created by KiCad (PCBNEW 7.0.9) date 2023-12-17 20:03:05*
%MOMM*%
%LPD*%
G01*
G04 APERTURE LIST*
%ADD10C,0.100000*%
%ADD11C,0.200000*%
G04 APERTURE END LIST*
D10*
X15462500Y-5100000D02*
G75*
G03*
X15462500Y-5100000I-162500J0D01*
G01*
X10000000Y-13400000D02*
G75*
G03*
X10300000Y-13700000I300000J0D01*
G01*
X15600000Y-5100000D02*
X15600000Y-13400000D01*
X10462500Y-5100000D02*
G75*
G03*
X10462500Y-5100000I-162500J0D01*
G01*
X15300000Y-13700000D02*
X10300000Y-13700000D01*
X10300000Y-4800000D02*
X15300000Y-4800000D01*
X15462500Y-13400000D02*
G75*
G03*
X15462500Y-13400000I-162500J0D01*
G01*
X10462500Y-13400000D02*
G75*
G03*
X10462500Y-13400000I-162500J0D01*
G01*
X15300000Y-13700000D02*
G75*
G03*
X15600000Y-13400000I0J300000D01*
G01*
X10300000Y-4800000D02*
G75*
G03*
X10000000Y-5100000I0J-300000D01*
G01*
X15600000Y-5100000D02*
G75*
G03*
X15300000Y-4800000I-300000J0D01*
G01*
X10000000Y-13400000D02*
X10000000Y-5100000D01*
D11*
X10255777Y-14016484D02*
X10255777Y-13816484D01*
X10255777Y-13816484D02*
X10303396Y-13816484D01*
X10303396Y-13816484D02*
X10331967Y-13826008D01*
X10331967Y-13826008D02*
X10351015Y-13845055D01*
X10351015Y-13845055D02*
X10360539Y-13864103D01*
X10360539Y-13864103D02*
X10370063Y-13902198D01*
X10370063Y-13902198D02*
X10370063Y-13930769D01*
X10370063Y-13930769D02*
X10360539Y-13968865D01*
X10360539Y-13968865D02*
X10351015Y-13987912D01*
X10351015Y-13987912D02*
X10331967Y-14006960D01*
X10331967Y-14006960D02*
X10303396Y-14016484D01*
X10303396Y-14016484D02*
X10255777Y-14016484D01*
X10455777Y-14016484D02*
X10455777Y-13883150D01*
X10455777Y-13921246D02*
X10465301Y-13902198D01*
X10465301Y-13902198D02*
X10474824Y-13892674D01*
X10474824Y-13892674D02*
X10493872Y-13883150D01*
X10493872Y-13883150D02*
X10512920Y-13883150D01*
X10579586Y-14016484D02*
X10579586Y-13883150D01*
X10579586Y-13816484D02*
X10570063Y-13826008D01*
X10570063Y-13826008D02*
X10579586Y-13835531D01*
X10579586Y-13835531D02*
X10589110Y-13826008D01*
X10589110Y-13826008D02*
X10579586Y-13816484D01*
X10579586Y-13816484D02*
X10579586Y-13835531D01*
X10703396Y-14016484D02*
X10684348Y-14006960D01*
X10684348Y-14006960D02*
X10674824Y-13987912D01*
X10674824Y-13987912D02*
X10674824Y-13816484D01*
X10808158Y-14016484D02*
X10789110Y-14006960D01*
X10789110Y-14006960D02*
X10779586Y-13987912D01*
X10779586Y-13987912D02*
X10779586Y-13816484D01*
X11036729Y-14016484D02*
X11036729Y-13816484D01*
X11036729Y-13816484D02*
X11103396Y-13959341D01*
X11103396Y-13959341D02*
X11170063Y-13816484D01*
X11170063Y-13816484D02*
X11170063Y-14016484D01*
X11351015Y-14016484D02*
X11351015Y-13911722D01*
X11351015Y-13911722D02*
X11341491Y-13892674D01*
X11341491Y-13892674D02*
X11322443Y-13883150D01*
X11322443Y-13883150D02*
X11284348Y-13883150D01*
X11284348Y-13883150D02*
X11265301Y-13892674D01*
X11351015Y-14006960D02*
X11331967Y-14016484D01*
X11331967Y-14016484D02*
X11284348Y-14016484D01*
X11284348Y-14016484D02*
X11265301Y-14006960D01*
X11265301Y-14006960D02*
X11255777Y-13987912D01*
X11255777Y-13987912D02*
X11255777Y-13968865D01*
X11255777Y-13968865D02*
X11265301Y-13949817D01*
X11265301Y-13949817D02*
X11284348Y-13940293D01*
X11284348Y-13940293D02*
X11331967Y-13940293D01*
X11331967Y-13940293D02*
X11351015Y-13930769D01*
X11446253Y-13883150D02*
X11446253Y-14083150D01*
X11446253Y-13892674D02*
X11465301Y-13883150D01*
X11465301Y-13883150D02*
X11503396Y-13883150D01*
X11503396Y-13883150D02*
X11522443Y-13892674D01*
X11522443Y-13892674D02*
X11531967Y-13902198D01*
X11531967Y-13902198D02*
X11541491Y-13921246D01*
X11541491Y-13921246D02*
X11541491Y-13978388D01*
X11541491Y-13978388D02*
X11531967Y-13997436D01*
X11531967Y-13997436D02*
X11522443Y-14006960D01*
X11522443Y-14006960D02*
X11503396Y-14016484D01*
X11503396Y-14016484D02*
X11465301Y-14016484D01*
X11465301Y-14016484D02*
X11446253Y-14006960D01*
X11627205Y-13997436D02*
X11636729Y-14006960D01*
X11636729Y-14006960D02*
X11627205Y-14016484D01*
X11627205Y-14016484D02*
X11617682Y-14006960D01*
X11617682Y-14006960D02*
X11627205Y-13997436D01*
X11627205Y-13997436D02*
X11627205Y-14016484D01*
X11627205Y-13892674D02*
X11636729Y-13902198D01*
X11636729Y-13902198D02*
X11627205Y-13911722D01*
X11627205Y-13911722D02*
X11617682Y-13902198D01*
X11617682Y-13902198D02*
X11627205Y-13892674D01*
X11627205Y-13892674D02*
X11627205Y-13911722D01*
M02*
