%TF.GenerationSoftware,KiCad,Pcbnew,7.0.9*%
%TF.CreationDate,2023-12-17T20:03:09-08:00*%
%TF.ProjectId,schematic,73636865-6d61-4746-9963-2e6b69636164,rev?*%
%TF.SameCoordinates,Original*%
%TF.FileFunction,Legend,Bot*%
%TF.FilePolarity,Positive*%
%FSLAX46Y46*%
G04 Gerber Fmt 4.6, Leading zero omitted, Abs format (unit mm)*
G04 Created by KiCad (PCBNEW 7.0.9) date 2023-12-17 20:03:09*
%MOMM*%
%LPD*%
G01*
G04 APERTURE LIST*
%ADD10C,0.100000*%
%ADD11R,1.300000X1.300000*%
%ADD12C,1.300000*%
%ADD13C,1.600000*%
%ADD14O,1.600000X1.600000*%
%ADD15R,2.540000X2.540000*%
%ADD16C,2.540000*%
%ADD17R,2.000000X2.000000*%
%ADD18O,2.000000X2.000000*%
%ADD19C,2.500000*%
%ADD20C,2.000000*%
%ADD21O,2.000000X1.998980*%
%ADD22C,1.800000*%
%ADD23C,3.500000*%
G04 APERTURE END LIST*
D10*
X133459798Y-68957419D02*
X133793131Y-68481228D01*
X134031226Y-68957419D02*
X134031226Y-67957419D01*
X134031226Y-67957419D02*
X133650274Y-67957419D01*
X133650274Y-67957419D02*
X133555036Y-68005038D01*
X133555036Y-68005038D02*
X133507417Y-68052657D01*
X133507417Y-68052657D02*
X133459798Y-68147895D01*
X133459798Y-68147895D02*
X133459798Y-68290752D01*
X133459798Y-68290752D02*
X133507417Y-68385990D01*
X133507417Y-68385990D02*
X133555036Y-68433609D01*
X133555036Y-68433609D02*
X133650274Y-68481228D01*
X133650274Y-68481228D02*
X134031226Y-68481228D01*
X133174083Y-67957419D02*
X132840750Y-68957419D01*
X132840750Y-68957419D02*
X132507417Y-67957419D01*
X132221702Y-68052657D02*
X132174083Y-68005038D01*
X132174083Y-68005038D02*
X132078845Y-67957419D01*
X132078845Y-67957419D02*
X131840750Y-67957419D01*
X131840750Y-67957419D02*
X131745512Y-68005038D01*
X131745512Y-68005038D02*
X131697893Y-68052657D01*
X131697893Y-68052657D02*
X131650274Y-68147895D01*
X131650274Y-68147895D02*
X131650274Y-68243133D01*
X131650274Y-68243133D02*
X131697893Y-68385990D01*
X131697893Y-68385990D02*
X132269321Y-68957419D01*
X132269321Y-68957419D02*
X131650274Y-68957419D01*
X117958332Y-58909800D02*
X117815475Y-58957419D01*
X117815475Y-58957419D02*
X117577380Y-58957419D01*
X117577380Y-58957419D02*
X117482142Y-58909800D01*
X117482142Y-58909800D02*
X117434523Y-58862180D01*
X117434523Y-58862180D02*
X117386904Y-58766942D01*
X117386904Y-58766942D02*
X117386904Y-58671704D01*
X117386904Y-58671704D02*
X117434523Y-58576466D01*
X117434523Y-58576466D02*
X117482142Y-58528847D01*
X117482142Y-58528847D02*
X117577380Y-58481228D01*
X117577380Y-58481228D02*
X117767856Y-58433609D01*
X117767856Y-58433609D02*
X117863094Y-58385990D01*
X117863094Y-58385990D02*
X117910713Y-58338371D01*
X117910713Y-58338371D02*
X117958332Y-58243133D01*
X117958332Y-58243133D02*
X117958332Y-58147895D01*
X117958332Y-58147895D02*
X117910713Y-58052657D01*
X117910713Y-58052657D02*
X117863094Y-58005038D01*
X117863094Y-58005038D02*
X117767856Y-57957419D01*
X117767856Y-57957419D02*
X117529761Y-57957419D01*
X117529761Y-57957419D02*
X117386904Y-58005038D01*
X117053570Y-57957419D02*
X116815475Y-58957419D01*
X116815475Y-58957419D02*
X116624999Y-58243133D01*
X116624999Y-58243133D02*
X116434523Y-58957419D01*
X116434523Y-58957419D02*
X116196428Y-57957419D01*
X115291666Y-58957419D02*
X115863094Y-58957419D01*
X115577380Y-58957419D02*
X115577380Y-57957419D01*
X115577380Y-57957419D02*
X115672618Y-58100276D01*
X115672618Y-58100276D02*
X115767856Y-58195514D01*
X115767856Y-58195514D02*
X115863094Y-58243133D01*
X148459798Y-68957419D02*
X148793131Y-68481228D01*
X149031226Y-68957419D02*
X149031226Y-67957419D01*
X149031226Y-67957419D02*
X148650274Y-67957419D01*
X148650274Y-67957419D02*
X148555036Y-68005038D01*
X148555036Y-68005038D02*
X148507417Y-68052657D01*
X148507417Y-68052657D02*
X148459798Y-68147895D01*
X148459798Y-68147895D02*
X148459798Y-68290752D01*
X148459798Y-68290752D02*
X148507417Y-68385990D01*
X148507417Y-68385990D02*
X148555036Y-68433609D01*
X148555036Y-68433609D02*
X148650274Y-68481228D01*
X148650274Y-68481228D02*
X149031226Y-68481228D01*
X148174083Y-67957419D02*
X147840750Y-68957419D01*
X147840750Y-68957419D02*
X147507417Y-67957419D01*
X146650274Y-68957419D02*
X147221702Y-68957419D01*
X146935988Y-68957419D02*
X146935988Y-67957419D01*
X146935988Y-67957419D02*
X147031226Y-68100276D01*
X147031226Y-68100276D02*
X147126464Y-68195514D01*
X147126464Y-68195514D02*
X147221702Y-68243133D01*
X107833332Y-58909800D02*
X107690475Y-58957419D01*
X107690475Y-58957419D02*
X107452380Y-58957419D01*
X107452380Y-58957419D02*
X107357142Y-58909800D01*
X107357142Y-58909800D02*
X107309523Y-58862180D01*
X107309523Y-58862180D02*
X107261904Y-58766942D01*
X107261904Y-58766942D02*
X107261904Y-58671704D01*
X107261904Y-58671704D02*
X107309523Y-58576466D01*
X107309523Y-58576466D02*
X107357142Y-58528847D01*
X107357142Y-58528847D02*
X107452380Y-58481228D01*
X107452380Y-58481228D02*
X107642856Y-58433609D01*
X107642856Y-58433609D02*
X107738094Y-58385990D01*
X107738094Y-58385990D02*
X107785713Y-58338371D01*
X107785713Y-58338371D02*
X107833332Y-58243133D01*
X107833332Y-58243133D02*
X107833332Y-58147895D01*
X107833332Y-58147895D02*
X107785713Y-58052657D01*
X107785713Y-58052657D02*
X107738094Y-58005038D01*
X107738094Y-58005038D02*
X107642856Y-57957419D01*
X107642856Y-57957419D02*
X107404761Y-57957419D01*
X107404761Y-57957419D02*
X107261904Y-58005038D01*
X106928570Y-57957419D02*
X106690475Y-58957419D01*
X106690475Y-58957419D02*
X106499999Y-58243133D01*
X106499999Y-58243133D02*
X106309523Y-58957419D01*
X106309523Y-58957419D02*
X106071428Y-57957419D01*
X105738094Y-58052657D02*
X105690475Y-58005038D01*
X105690475Y-58005038D02*
X105595237Y-57957419D01*
X105595237Y-57957419D02*
X105357142Y-57957419D01*
X105357142Y-57957419D02*
X105261904Y-58005038D01*
X105261904Y-58005038D02*
X105214285Y-58052657D01*
X105214285Y-58052657D02*
X105166666Y-58147895D01*
X105166666Y-58147895D02*
X105166666Y-58243133D01*
X105166666Y-58243133D02*
X105214285Y-58385990D01*
X105214285Y-58385990D02*
X105785713Y-58957419D01*
X105785713Y-58957419D02*
X105166666Y-58957419D01*
%TO.C,RV2*%
X128200000Y-70000000D02*
X138000000Y-70000000D01*
X138000000Y-70000000D02*
X138000000Y-59000000D01*
X138000000Y-59000000D02*
X128200000Y-59000000D01*
X128200000Y-59000000D02*
X128200000Y-70000000D01*
%TO.C,SW1*%
X120000000Y-56500000D02*
X113250000Y-56500000D01*
X113250000Y-56500000D02*
X113250000Y-72500000D01*
X113250000Y-72500000D02*
X120000000Y-72500000D01*
X120000000Y-72500000D02*
X120000000Y-56500000D01*
%TO.C,RV1*%
X143200000Y-70000000D02*
X153000000Y-70000000D01*
X153000000Y-70000000D02*
X153000000Y-59000000D01*
X153000000Y-59000000D02*
X143200000Y-59000000D01*
X143200000Y-59000000D02*
X143200000Y-70000000D01*
%TO.C,SW2*%
X110000000Y-56500000D02*
X103000000Y-56500000D01*
X103000000Y-56500000D02*
X103000000Y-72500000D01*
X103000000Y-72500000D02*
X110000000Y-72500000D01*
X110000000Y-72500000D02*
X110000000Y-56500000D01*
%TD*%
%LPC*%
D11*
%TO.C,Q2*%
X121820000Y-78940000D03*
D12*
X120550000Y-80210000D03*
X121820000Y-81480000D03*
%TD*%
D13*
%TO.C,R6*%
X125330000Y-74690000D03*
D14*
X125330000Y-82310000D03*
%TD*%
D13*
%TO.C,C4*%
X152173560Y-108000000D03*
X152173560Y-113000000D03*
%TD*%
D15*
%TO.C,U2*%
X122610000Y-86000000D03*
D16*
X104830000Y-86000000D03*
X104830000Y-126640000D03*
X122610000Y-126640000D03*
%TD*%
D17*
%TO.C,D4*%
X139080000Y-81760000D03*
D18*
X144160000Y-81760000D03*
%TD*%
D17*
%TO.C,D1*%
X112760000Y-78660000D03*
D18*
X117840000Y-78660000D03*
%TD*%
D19*
%TO.C,L1*%
X138960000Y-52000000D03*
X144040000Y-52000000D03*
%TD*%
D11*
%TO.C,Q1*%
X105500000Y-79310000D03*
D12*
X104230000Y-80580000D03*
X105500000Y-81850000D03*
%TD*%
D13*
%TO.C,R9*%
X148000000Y-97190000D03*
D14*
X148000000Y-104810000D03*
%TD*%
D17*
%TO.C,D3*%
X139080000Y-78660000D03*
D18*
X144160000Y-78660000D03*
%TD*%
D13*
%TO.C,R8*%
X151730000Y-74715000D03*
D14*
X151730000Y-82335000D03*
%TD*%
D13*
%TO.C,R3*%
X135330000Y-82310000D03*
D14*
X135330000Y-74690000D03*
%TD*%
D13*
%TO.C,R4*%
X109010000Y-82260000D03*
D14*
X109010000Y-74640000D03*
%TD*%
D20*
%TO.C,U3*%
X138250000Y-88255000D03*
X141750000Y-88255000D03*
X129614000Y-88255000D03*
X133114000Y-88255000D03*
X131872000Y-106035000D03*
X134412000Y-106035000D03*
X136952000Y-106035000D03*
X139492000Y-106035000D03*
%TD*%
D17*
%TO.C,U1*%
X149414560Y-128240000D03*
D20*
X149414560Y-125700000D03*
X149414560Y-123160000D03*
X149414560Y-120620000D03*
X149414560Y-118080000D03*
X149414560Y-115540000D03*
X149414560Y-113000000D03*
D21*
X133250000Y-113000000D03*
D20*
X133250000Y-115540000D03*
X133250000Y-118080000D03*
X133250000Y-120620000D03*
X133250000Y-123160000D03*
X133250000Y-125700000D03*
X133250000Y-128240000D03*
%TD*%
D13*
%TO.C,R11*%
X154000000Y-97190000D03*
D14*
X154000000Y-104810000D03*
%TD*%
D13*
%TO.C,R5*%
X115160000Y-75560000D03*
D14*
X122780000Y-75560000D03*
%TD*%
D13*
%TO.C,R7*%
X141560000Y-75610000D03*
D14*
X149180000Y-75610000D03*
%TD*%
D13*
%TO.C,R2*%
X132330000Y-82310000D03*
D14*
X132330000Y-74690000D03*
%TD*%
D13*
%TO.C,C1*%
X131122000Y-128240000D03*
X126122000Y-128240000D03*
%TD*%
%TO.C,C2*%
X131122000Y-131590000D03*
X126122000Y-131590000D03*
%TD*%
D11*
%TO.C,Q3*%
X148220000Y-78940000D03*
D12*
X146950000Y-80210000D03*
X148220000Y-81480000D03*
%TD*%
D13*
%TO.C,R10*%
X151000000Y-97190000D03*
D14*
X151000000Y-104810000D03*
%TD*%
D13*
%TO.C,C3*%
X152173560Y-120540000D03*
X152173560Y-115540000D03*
%TD*%
%TO.C,R1*%
X129330000Y-82310000D03*
D14*
X129330000Y-74690000D03*
%TD*%
D19*
%TO.C,V1*%
X116580000Y-132545000D03*
X111500000Y-132545000D03*
%TD*%
D17*
%TO.C,D2*%
X112760000Y-81760000D03*
D18*
X117840000Y-81760000D03*
%TD*%
D22*
%TO.C,RV2*%
X130600000Y-57500000D03*
X133100000Y-57500000D03*
X135600000Y-57500000D03*
D23*
X128450000Y-64500000D03*
X137750000Y-64500000D03*
%TD*%
D13*
%TO.C,SW1*%
X117895000Y-64500000D03*
X117895000Y-60500000D03*
X117895000Y-68500000D03*
X115355000Y-64500000D03*
X115355000Y-60500000D03*
X115355000Y-68500000D03*
D20*
X120000000Y-57100000D03*
X113250000Y-57100000D03*
X120000000Y-72100000D03*
X113250000Y-72100000D03*
%TD*%
D22*
%TO.C,RV1*%
X145600000Y-57500000D03*
X148100000Y-57500000D03*
X150600000Y-57500000D03*
D23*
X143450000Y-64500000D03*
X152750000Y-64500000D03*
%TD*%
D13*
%TO.C,SW2*%
X108000000Y-60500000D03*
X108000000Y-64500000D03*
X108000000Y-68500000D03*
X108000000Y-66500000D03*
X105000000Y-60500000D03*
X105000000Y-64500000D03*
X105000000Y-68500000D03*
X105000000Y-66500000D03*
D20*
X103000000Y-57010000D03*
X110000000Y-72090000D03*
%TD*%
%LPD*%
M02*
