M48
; DRILL file {KiCad 7.0.9} date Sunday, December 17, 2023 at 08:03:04 PM
; FORMAT={-:-/ absolute / metric / decimal}
; #@! TF.CreationDate,2023-12-17T20:03:04-08:00
; #@! TF.GenerationSoftware,Kicad,Pcbnew,7.0.9
; #@! TF.FileFunction,Plated,1,2,PTH
FMAT,2
METRIC
; #@! TA.AperFunction,Plated,PTH,ComponentDrill
T1C0.750
; #@! TA.AperFunction,Plated,PTH,ComponentDrill
T2C0.800
; #@! TA.AperFunction,Plated,PTH,ComponentDrill
T3C1.000
; #@! TA.AperFunction,Plated,PTH,ComponentDrill
T4C1.050
; #@! TA.AperFunction,Plated,PTH,ComponentDrill
T5C1.200
; #@! TA.AperFunction,Plated,PTH,ComponentDrill
T6C1.250
; #@! TA.AperFunction,Plated,PTH,ComponentDrill
T7C2.500
%
G90
G05
T1
X104.23Y-80.58
X105.5Y-79.31
X105.5Y-81.85
X120.55Y-80.21
X121.82Y-78.94
X121.82Y-81.48
X146.95Y-80.21
X148.22Y-78.94
X148.22Y-81.48
T2
X105.0Y-60.5
X105.0Y-64.5
X105.0Y-66.5
X105.0Y-68.5
X108.0Y-60.5
X108.0Y-64.5
X108.0Y-66.5
X108.0Y-68.5
X109.01Y-74.64
X109.01Y-82.26
X115.16Y-75.56
X115.355Y-60.5
X115.355Y-64.5
X115.355Y-68.5
X117.895Y-60.5
X117.895Y-64.5
X117.895Y-68.5
X122.78Y-75.56
X125.33Y-74.69
X125.33Y-82.31
X126.122Y-128.24
X126.122Y-131.59
X129.33Y-74.69
X129.33Y-82.31
X131.122Y-128.24
X131.122Y-131.59
X132.33Y-74.69
X132.33Y-82.31
X135.33Y-74.69
X135.33Y-82.31
X141.56Y-75.61
X148.0Y-97.19
X148.0Y-104.81
X149.18Y-75.61
X151.0Y-97.19
X151.0Y-104.81
X151.73Y-74.715
X151.73Y-82.335
X152.174Y-108.0
X152.174Y-113.0
X152.174Y-115.54
X152.174Y-120.54
X154.0Y-97.19
X154.0Y-104.81
T3
X104.83Y-86.0
X104.83Y-126.64
X112.76Y-78.66
X112.76Y-81.76
X117.84Y-78.66
X117.84Y-81.76
X122.61Y-86.0
X122.61Y-126.64
X129.614Y-88.255
X131.872Y-106.035
X133.114Y-88.255
X133.25Y-113.0
X133.25Y-115.54
X133.25Y-118.08
X133.25Y-120.62
X133.25Y-123.16
X133.25Y-125.7
X133.25Y-128.24
X134.412Y-106.035
X136.952Y-106.035
X138.25Y-88.255
X139.08Y-78.66
X139.08Y-81.76
X139.492Y-106.035
X141.75Y-88.255
X144.16Y-78.66
X144.16Y-81.76
X149.415Y-113.0
X149.415Y-115.54
X149.415Y-118.08
X149.415Y-120.62
X149.415Y-123.16
X149.415Y-125.7
X149.415Y-128.24
T4
X130.6Y-57.5
X133.1Y-57.5
X135.6Y-57.5
X145.6Y-57.5
X148.1Y-57.5
X150.6Y-57.5
T5
X103.0Y-57.01
X110.0Y-72.09
X113.25Y-57.1
X113.25Y-72.1
X120.0Y-57.1
X120.0Y-72.1
T6
X111.5Y-132.545
X116.58Y-132.545
X138.96Y-52.0
X144.04Y-52.0
T7
X128.45Y-64.5
X137.75Y-64.5
X143.45Y-64.5
X152.75Y-64.5
T0
M30
