%TF.GenerationSoftware,KiCad,Pcbnew,7.0.9*%
%TF.CreationDate,2023-12-17T20:03:09-08:00*%
%TF.ProjectId,schematic,73636865-6d61-4746-9963-2e6b69636164,rev?*%
%TF.SameCoordinates,Original*%
%TF.FileFunction,Copper,L1,Top*%
%TF.FilePolarity,Positive*%
%FSLAX46Y46*%
G04 Gerber Fmt 4.6, Leading zero omitted, Abs format (unit mm)*
G04 Created by KiCad (PCBNEW 7.0.9) date 2023-12-17 20:03:09*
%MOMM*%
%LPD*%
G01*
G04 APERTURE LIST*
%TA.AperFunction,ComponentPad*%
%ADD10R,1.300000X1.300000*%
%TD*%
%TA.AperFunction,ComponentPad*%
%ADD11C,1.300000*%
%TD*%
%TA.AperFunction,ComponentPad*%
%ADD12C,1.600000*%
%TD*%
%TA.AperFunction,ComponentPad*%
%ADD13O,1.600000X1.600000*%
%TD*%
%TA.AperFunction,ComponentPad*%
%ADD14R,2.540000X2.540000*%
%TD*%
%TA.AperFunction,ComponentPad*%
%ADD15C,2.540000*%
%TD*%
%TA.AperFunction,ComponentPad*%
%ADD16R,2.000000X2.000000*%
%TD*%
%TA.AperFunction,ComponentPad*%
%ADD17O,2.000000X2.000000*%
%TD*%
%TA.AperFunction,ComponentPad*%
%ADD18C,2.500000*%
%TD*%
%TA.AperFunction,ComponentPad*%
%ADD19C,2.000000*%
%TD*%
%TA.AperFunction,ComponentPad*%
%ADD20O,2.000000X1.998980*%
%TD*%
%TA.AperFunction,ComponentPad*%
%ADD21C,1.800000*%
%TD*%
%TA.AperFunction,ComponentPad*%
%ADD22C,3.500000*%
%TD*%
%TA.AperFunction,Conductor*%
%ADD23C,0.250000*%
%TD*%
G04 APERTURE END LIST*
D10*
%TO.P,Q2,1,C*%
%TO.N,/3.3V*%
X121820000Y-78940000D03*
D11*
%TO.P,Q2,2,B*%
%TO.N,Net-(D1-A)*%
X120550000Y-80210000D03*
%TO.P,Q2,3,E*%
%TO.N,/White out*%
X121820000Y-81480000D03*
%TD*%
D12*
%TO.P,R6,1*%
%TO.N,GND*%
X125330000Y-74690000D03*
D13*
%TO.P,R6,2*%
%TO.N,/White out*%
X125330000Y-82310000D03*
%TD*%
D12*
%TO.P,C4,1*%
%TO.N,GND*%
X152173560Y-108000000D03*
%TO.P,C4,2*%
%TO.N,/Speed*%
X152173560Y-113000000D03*
%TD*%
D14*
%TO.P,U2,1,Vin*%
%TO.N,/30V*%
X122610000Y-86000000D03*
D15*
%TO.P,U2,2,GND*%
%TO.N,GND*%
X104830000Y-86000000D03*
%TO.P,U2,3,GND*%
X104830000Y-126640000D03*
%TO.P,U2,4,Vout*%
%TO.N,/5V*%
X122610000Y-126640000D03*
%TD*%
D16*
%TO.P,D4,1,K*%
%TO.N,Net-(D1-K)*%
X139080000Y-81760000D03*
D17*
%TO.P,D4,2,A*%
%TO.N,Net-(D3-A)*%
X144160000Y-81760000D03*
%TD*%
D16*
%TO.P,D1,1,K*%
%TO.N,Net-(D1-K)*%
X112760000Y-78660000D03*
D17*
%TO.P,D1,2,A*%
%TO.N,Net-(D1-A)*%
X117840000Y-78660000D03*
%TD*%
D18*
%TO.P,L1,1,Out1*%
%TO.N,Net-(L1-Out1)*%
X138960000Y-52000000D03*
%TO.P,L1,2,Out2*%
%TO.N,Net-(L1-Out2)*%
X144040000Y-52000000D03*
%TD*%
D10*
%TO.P,Q1,1,C*%
%TO.N,Net-(D2-K)*%
X105500000Y-79310000D03*
D11*
%TO.P,Q1,2,B*%
%TO.N,Net-(Q1-B)*%
X104230000Y-80580000D03*
%TO.P,Q1,3,E*%
%TO.N,GND*%
X105500000Y-81850000D03*
%TD*%
D12*
%TO.P,R9,1*%
%TO.N,GND*%
X148000000Y-97190000D03*
D13*
%TO.P,R9,2*%
%TO.N,/Pattern*%
X148000000Y-104810000D03*
%TD*%
D16*
%TO.P,D3,1,K*%
%TO.N,Net-(D3-K)*%
X139080000Y-78660000D03*
D17*
%TO.P,D3,2,A*%
%TO.N,Net-(D3-A)*%
X144160000Y-78660000D03*
%TD*%
D12*
%TO.P,R8,1*%
%TO.N,GND*%
X151730000Y-74715000D03*
D13*
%TO.P,R8,2*%
%TO.N,/Color out*%
X151730000Y-82335000D03*
%TD*%
D12*
%TO.P,R3,1*%
%TO.N,/Bias*%
X135330000Y-82310000D03*
D13*
%TO.P,R3,2*%
%TO.N,Net-(D3-K)*%
X135330000Y-74690000D03*
%TD*%
D12*
%TO.P,R4,1*%
%TO.N,Net-(D2-K)*%
X109010000Y-82260000D03*
D13*
%TO.P,R4,2*%
%TO.N,/3.3V*%
X109010000Y-74640000D03*
%TD*%
D19*
%TO.P,U3,1,Power_+*%
%TO.N,/30V*%
X138250000Y-88255000D03*
%TO.P,U3,2,Power_-*%
%TO.N,GND*%
X141750000Y-88255000D03*
%TO.P,U3,3,Motor1*%
%TO.N,Net-(L1-Out1)*%
X129614000Y-88255000D03*
%TO.P,U3,4,Motor2*%
%TO.N,Net-(L1-Out2)*%
X133114000Y-88255000D03*
%TO.P,U3,5,Signal1*%
%TO.N,/White out*%
X131872000Y-106035000D03*
%TO.P,U3,6,Signal2*%
%TO.N,/Color out*%
X134412000Y-106035000D03*
%TO.P,U3,7,VM*%
%TO.N,unconnected-(U3-VM-Pad7)*%
X136952000Y-106035000D03*
%TO.P,U3,8,GND*%
%TO.N,GND*%
X139492000Y-106035000D03*
%TD*%
D16*
%TO.P,U1,1,PA02_A0_D0*%
%TO.N,unconnected-(U1-PA02_A0_D0-Pad1)*%
X149414560Y-128240000D03*
D19*
%TO.P,U1,2,PA4_A1_D1*%
%TO.N,/Pattern*%
X149414560Y-125700000D03*
%TO.P,U1,3,PA10_A2_D2*%
%TO.N,/White in*%
X149414560Y-123160000D03*
%TO.P,U1,4,PA11_A3_D3*%
%TO.N,/Color in*%
X149414560Y-120620000D03*
%TO.P,U1,5,PA8_A4_D4_SDA*%
%TO.N,unconnected-(U1-PA8_A4_D4_SDA-Pad5)*%
X149414560Y-118080000D03*
%TO.P,U1,6,PA9_A5_D5_SCL*%
%TO.N,/Intensity in*%
X149414560Y-115540000D03*
%TO.P,U1,7,PB08_A6_D6_TX*%
%TO.N,/Speed*%
X149414560Y-113000000D03*
D20*
%TO.P,U1,8,PB09_A7_D7_RX*%
%TO.N,/Bias*%
X133250000Y-113000000D03*
D19*
%TO.P,U1,9,PA7_A8_D8_SCK*%
%TO.N,/Intensity out*%
X133250000Y-115540000D03*
%TO.P,U1,10,PA5_A9_D9_MISO*%
%TO.N,unconnected-(U1-PA5_A9_D9_MISO-Pad10)*%
X133250000Y-118080000D03*
%TO.P,U1,11,PA6_A10_D10_MOSI*%
%TO.N,unconnected-(U1-PA6_A10_D10_MOSI-Pad11)*%
X133250000Y-120620000D03*
%TO.P,U1,12,3V3*%
%TO.N,/3.3V*%
X133250000Y-123160000D03*
%TO.P,U1,13,GND*%
%TO.N,GND*%
X133250000Y-125700000D03*
%TO.P,U1,14,5V*%
%TO.N,/5V*%
X133250000Y-128240000D03*
%TD*%
D12*
%TO.P,R11,1*%
%TO.N,GND*%
X154000000Y-97190000D03*
D13*
%TO.P,R11,2*%
%TO.N,/Color in*%
X154000000Y-104810000D03*
%TD*%
D12*
%TO.P,R5,1*%
%TO.N,Net-(D1-A)*%
X115160000Y-75560000D03*
D13*
%TO.P,R5,2*%
%TO.N,/3.3V*%
X122780000Y-75560000D03*
%TD*%
D12*
%TO.P,R7,1*%
%TO.N,Net-(D3-A)*%
X141560000Y-75610000D03*
D13*
%TO.P,R7,2*%
%TO.N,/3.3V*%
X149180000Y-75610000D03*
%TD*%
D12*
%TO.P,R2,1*%
%TO.N,/Intensity out*%
X132330000Y-82310000D03*
D13*
%TO.P,R2,2*%
%TO.N,Net-(D1-K)*%
X132330000Y-74690000D03*
%TD*%
D12*
%TO.P,C1,1*%
%TO.N,/5V*%
X131122000Y-128240000D03*
%TO.P,C1,2*%
%TO.N,GND*%
X126122000Y-128240000D03*
%TD*%
%TO.P,C2,1*%
%TO.N,/5V*%
X131122000Y-131590000D03*
%TO.P,C2,2*%
%TO.N,GND*%
X126122000Y-131590000D03*
%TD*%
D10*
%TO.P,Q3,1,C*%
%TO.N,/3.3V*%
X148220000Y-78940000D03*
D11*
%TO.P,Q3,2,B*%
%TO.N,Net-(D3-A)*%
X146950000Y-80210000D03*
%TO.P,Q3,3,E*%
%TO.N,/Color out*%
X148220000Y-81480000D03*
%TD*%
D12*
%TO.P,R10,1*%
%TO.N,GND*%
X151000000Y-97190000D03*
D13*
%TO.P,R10,2*%
%TO.N,/White in*%
X151000000Y-104810000D03*
%TD*%
D12*
%TO.P,C3,1*%
%TO.N,GND*%
X152173560Y-120540000D03*
%TO.P,C3,2*%
%TO.N,/Intensity in*%
X152173560Y-115540000D03*
%TD*%
%TO.P,R1,1*%
%TO.N,/Bias*%
X129330000Y-82310000D03*
D13*
%TO.P,R1,2*%
%TO.N,Net-(Q1-B)*%
X129330000Y-74690000D03*
%TD*%
D18*
%TO.P,V1,1*%
%TO.N,GND*%
X116580000Y-132545000D03*
%TO.P,V1,2*%
%TO.N,/30V*%
X111500000Y-132545000D03*
%TD*%
D16*
%TO.P,D2,1,K*%
%TO.N,Net-(D2-K)*%
X112760000Y-81760000D03*
D17*
%TO.P,D2,2,A*%
%TO.N,Net-(D1-A)*%
X117840000Y-81760000D03*
%TD*%
D21*
%TO.P,RV2,1,1*%
%TO.N,GND*%
X130600000Y-57500000D03*
%TO.P,RV2,2,2*%
%TO.N,/Intensity in*%
X133100000Y-57500000D03*
%TO.P,RV2,3,3*%
%TO.N,/3.3V*%
X135600000Y-57500000D03*
D22*
%TO.P,RV2,4*%
%TO.N,N/C*%
X128450000Y-64500000D03*
%TO.P,RV2,5*%
X137750000Y-64500000D03*
%TD*%
D12*
%TO.P,SW1,1,A*%
%TO.N,/3.3V*%
X117895000Y-64500000D03*
%TO.P,SW1,2,B*%
%TO.N,/Pattern*%
X117895000Y-60500000D03*
%TO.P,SW1,3*%
%TO.N,N/C*%
X117895000Y-68500000D03*
%TO.P,SW1,4*%
X115355000Y-64500000D03*
%TO.P,SW1,5*%
X115355000Y-60500000D03*
%TO.P,SW1,6*%
X115355000Y-68500000D03*
D19*
%TO.P,SW1,7*%
X120000000Y-57100000D03*
%TO.P,SW1,8*%
X113250000Y-57100000D03*
%TO.P,SW1,9*%
X120000000Y-72100000D03*
%TO.P,SW1,10*%
X113250000Y-72100000D03*
%TD*%
D21*
%TO.P,RV1,1,1*%
%TO.N,GND*%
X145600000Y-57500000D03*
%TO.P,RV1,2,2*%
%TO.N,/Speed*%
X148100000Y-57500000D03*
%TO.P,RV1,3,3*%
%TO.N,/3.3V*%
X150600000Y-57500000D03*
D22*
%TO.P,RV1,4*%
%TO.N,N/C*%
X143450000Y-64500000D03*
%TO.P,RV1,5*%
X152750000Y-64500000D03*
%TD*%
D12*
%TO.P,SW2,1,1*%
%TO.N,/Color in*%
X108000000Y-60500000D03*
%TO.P,SW2,2,2*%
%TO.N,/3.3V*%
X108000000Y-64500000D03*
%TO.P,SW2,3,3*%
%TO.N,/White in*%
X108000000Y-68500000D03*
%TO.P,SW2,4*%
%TO.N,N/C*%
X108000000Y-66500000D03*
%TO.P,SW2,5*%
X105000000Y-60500000D03*
%TO.P,SW2,6*%
X105000000Y-64500000D03*
%TO.P,SW2,7*%
X105000000Y-68500000D03*
%TO.P,SW2,8*%
X105000000Y-66500000D03*
D19*
%TO.P,SW2,9*%
X103000000Y-57010000D03*
%TO.P,SW2,10*%
X110000000Y-72090000D03*
%TD*%
D23*
%TO.N,/Intensity in*%
X134600000Y-56000000D02*
X151500000Y-56000000D01*
X133100000Y-57500000D02*
X134600000Y-56000000D01*
X149414560Y-115540000D02*
X152173560Y-115540000D01*
X155575000Y-112138560D02*
X152173560Y-115540000D01*
X151500000Y-56000000D02*
X155575000Y-60075000D01*
X155575000Y-60075000D02*
X155575000Y-112138560D01*
%TO.N,/Speed*%
X152173560Y-113000000D02*
X155125000Y-110048560D01*
X149414560Y-113000000D02*
X152173560Y-113000000D01*
X150100000Y-59500000D02*
X154363604Y-59500000D01*
X148100000Y-57500000D02*
X150100000Y-59500000D01*
X154363604Y-59500000D02*
X155125000Y-60261396D01*
X155125000Y-110048560D02*
X155125000Y-60261396D01*
%TO.N,Net-(D1-K)*%
X114000000Y-73500000D02*
X121000000Y-73500000D01*
X112760000Y-78660000D02*
X112760000Y-74740000D01*
X121500000Y-73000000D02*
X130640000Y-73000000D01*
X132330000Y-74690000D02*
X139080000Y-81440000D01*
X130640000Y-73000000D02*
X132330000Y-74690000D01*
X112760000Y-74740000D02*
X114000000Y-73500000D01*
X139080000Y-81440000D02*
X139080000Y-81760000D01*
X121000000Y-73500000D02*
X121500000Y-73000000D01*
%TO.N,Net-(D1-A)*%
X120550000Y-80210000D02*
X119390000Y-80210000D01*
X119390000Y-80210000D02*
X117840000Y-78660000D01*
X117840000Y-78660000D02*
X115160000Y-75980000D01*
X119390000Y-80210000D02*
X117840000Y-81760000D01*
X115160000Y-75980000D02*
X115160000Y-75560000D01*
%TO.N,Net-(D2-K)*%
X109510000Y-81760000D02*
X109010000Y-82260000D01*
X109010000Y-82260000D02*
X106060000Y-79310000D01*
X112760000Y-81760000D02*
X109510000Y-81760000D01*
X106060000Y-79310000D02*
X105500000Y-79310000D01*
%TO.N,Net-(D3-A)*%
X141560000Y-75610000D02*
X144160000Y-78210000D01*
X144160000Y-78210000D02*
X144160000Y-78660000D01*
X144160000Y-78660000D02*
X145710000Y-80210000D01*
X145710000Y-80210000D02*
X144160000Y-81760000D01*
X146950000Y-80210000D02*
X145710000Y-80210000D01*
%TO.N,Net-(D3-K)*%
X139080000Y-78440000D02*
X139080000Y-78660000D01*
X135330000Y-74690000D02*
X139080000Y-78440000D01*
%TO.N,Net-(Q1-B)*%
X104430000Y-78000000D02*
X109450000Y-78000000D01*
X113500000Y-76000000D02*
X113500000Y-75000000D01*
X109450000Y-78000000D02*
X111450000Y-80000000D01*
X114254504Y-79815496D02*
X114254504Y-76754504D01*
X122000000Y-77000000D02*
X127020000Y-77000000D01*
X114485000Y-74015000D02*
X119015000Y-74015000D01*
X104230000Y-80580000D02*
X104230000Y-78200000D01*
X113500000Y-75000000D02*
X114485000Y-74015000D01*
X119015000Y-74015000D02*
X122000000Y-77000000D01*
X114254504Y-76754504D02*
X113500000Y-76000000D01*
X127020000Y-77000000D02*
X129330000Y-74690000D01*
X114070000Y-80000000D02*
X114254504Y-79815496D01*
X104230000Y-78200000D02*
X104430000Y-78000000D01*
X111450000Y-80000000D02*
X114070000Y-80000000D01*
%TO.N,/Intensity out*%
X133250000Y-115540000D02*
X127500000Y-109790000D01*
X127500000Y-109790000D02*
X127500000Y-87140000D01*
X127500000Y-87140000D02*
X132330000Y-82310000D01*
%TO.N,/Bias*%
X133320000Y-84000000D02*
X131276396Y-84000000D01*
X129330000Y-82310000D02*
X130690000Y-80950000D01*
X131276396Y-84000000D02*
X128000000Y-87276396D01*
X130690000Y-80950000D02*
X133970000Y-80950000D01*
X135330000Y-82310000D02*
X135010000Y-82310000D01*
X128000000Y-107750000D02*
X133250000Y-113000000D01*
X133970000Y-80950000D02*
X135330000Y-82310000D01*
X135010000Y-82310000D02*
X133320000Y-84000000D01*
X128000000Y-87276396D02*
X128000000Y-107750000D01*
%TO.N,/Pattern*%
X148000000Y-104810000D02*
X146600000Y-106210000D01*
X102500000Y-76500000D02*
X102500000Y-128500000D01*
X117895000Y-60500000D02*
X117632005Y-60500000D01*
X109000000Y-135000000D02*
X146113604Y-135000000D01*
X113500000Y-65500000D02*
X102500000Y-76500000D01*
X146113604Y-135000000D02*
X152000000Y-129113604D01*
X146600000Y-106210000D02*
X146600000Y-122885440D01*
X152000000Y-129113604D02*
X152000000Y-128285440D01*
X113500000Y-64632005D02*
X113500000Y-65500000D01*
X146600000Y-122885440D02*
X149414560Y-125700000D01*
X102500000Y-128500000D02*
X109000000Y-135000000D01*
X152000000Y-128285440D02*
X149414560Y-125700000D01*
X117632005Y-60500000D02*
X113500000Y-64632005D01*
%TO.N,/White out*%
X127140000Y-80500000D02*
X125330000Y-82310000D01*
X136500000Y-81500000D02*
X135500000Y-80500000D01*
X136500000Y-101000000D02*
X136500000Y-81500000D01*
X135500000Y-80500000D02*
X127140000Y-80500000D01*
X125330000Y-82310000D02*
X122650000Y-82310000D01*
X136500000Y-101407000D02*
X136500000Y-101000000D01*
X131872000Y-106035000D02*
X136500000Y-101407000D01*
X122650000Y-82310000D02*
X121820000Y-81480000D01*
%TO.N,/Color out*%
X151730000Y-82335000D02*
X149075000Y-82335000D01*
X149075000Y-82335000D02*
X148220000Y-81480000D01*
X134412000Y-106035000D02*
X148220000Y-92227000D01*
X148220000Y-92227000D02*
X148220000Y-92000000D01*
X148220000Y-92000000D02*
X148220000Y-81480000D01*
%TO.N,/White in*%
X108000000Y-68500000D02*
X102000000Y-74500000D01*
X152500000Y-129250000D02*
X152500000Y-126245440D01*
X102000000Y-74500000D02*
X102000000Y-128636396D01*
X102000000Y-128636396D02*
X108863604Y-135500000D01*
X147050000Y-108760000D02*
X147050000Y-120795440D01*
X152500000Y-126245440D02*
X149414560Y-123160000D01*
X151000000Y-104810000D02*
X147050000Y-108760000D01*
X146250000Y-135500000D02*
X152500000Y-129250000D01*
X147050000Y-120795440D02*
X149414560Y-123160000D01*
X108863604Y-135500000D02*
X146250000Y-135500000D01*
%TO.N,/Color in*%
X153000000Y-129500000D02*
X153000000Y-124205440D01*
X146500000Y-136000000D02*
X153000000Y-129500000D01*
X147500000Y-110178630D02*
X147500000Y-118705440D01*
X101500000Y-65868630D02*
X101500000Y-128772792D01*
X106868630Y-60500000D02*
X101500000Y-65868630D01*
X153000000Y-124205440D02*
X149414560Y-120620000D01*
X101500000Y-128772792D02*
X108727208Y-136000000D01*
X147500000Y-118705440D02*
X149414560Y-120620000D01*
X108727208Y-136000000D02*
X146500000Y-136000000D01*
X152868630Y-104810000D02*
X147500000Y-110178630D01*
X154000000Y-104810000D02*
X152868630Y-104810000D01*
X108000000Y-60500000D02*
X106868630Y-60500000D01*
%TD*%
M02*
