%TF.GenerationSoftware,KiCad,Pcbnew,7.0.9*%
%TF.CreationDate,2023-12-17T20:03:05-08:00*%
%TF.ProjectId,schematic,73636865-6d61-4746-9963-2e6b69636164,rev?*%
%TF.SameCoordinates,Original*%
%TF.FileFunction,Drillmap*%
%TF.FilePolarity,Positive*%
%FSLAX45Y45*%
G04 Gerber Fmt 4.5, Leading zero omitted, Abs format (unit mm)*
G04 Created by KiCad (PCBNEW 7.0.9) date 2023-12-17 20:03:05*
%MOMM*%
%LPD*%
G01*
G04 APERTURE LIST*
%ADD10C,0.100000*%
%ADD11C,0.200000*%
%ADD12C,0.105000*%
%ADD13C,0.120000*%
%ADD14C,0.125000*%
%ADD15C,0.250000*%
G04 APERTURE END LIST*
D10*
X15462500Y-5100000D02*
G75*
G03*
X15462500Y-5100000I-162500J0D01*
G01*
X10000000Y-13400000D02*
G75*
G03*
X10300000Y-13700000I300000J0D01*
G01*
X15600000Y-5100000D02*
X15600000Y-13400000D01*
X10462500Y-5100000D02*
G75*
G03*
X10462500Y-5100000I-162500J0D01*
G01*
X15300000Y-13700000D02*
X10300000Y-13700000D01*
X10300000Y-4800000D02*
X15300000Y-4800000D01*
X15462500Y-13400000D02*
G75*
G03*
X15462500Y-13400000I-162500J0D01*
G01*
X10462500Y-13400000D02*
G75*
G03*
X10462500Y-13400000I-162500J0D01*
G01*
X15300000Y-13700000D02*
G75*
G03*
X15600000Y-13400000I0J300000D01*
G01*
X10300000Y-4800000D02*
G75*
G03*
X10000000Y-5100000I0J-300000D01*
G01*
X15600000Y-5100000D02*
G75*
G03*
X15300000Y-4800000I-300000J0D01*
G01*
X10000000Y-13400000D02*
X10000000Y-5100000D01*
D11*
D10*
X10385500Y-8020500D02*
X10460500Y-8095500D01*
X10460500Y-8020500D02*
X10385500Y-8095500D01*
X10512500Y-7893500D02*
X10587500Y-7968500D01*
X10587500Y-7893500D02*
X10512500Y-7968500D01*
X10512500Y-8147500D02*
X10587500Y-8222500D01*
X10587500Y-8147500D02*
X10512500Y-8222500D01*
X12017500Y-7983500D02*
X12092500Y-8058500D01*
X12092500Y-7983500D02*
X12017500Y-8058500D01*
X12144500Y-7856500D02*
X12219500Y-7931500D01*
X12219500Y-7856500D02*
X12144500Y-7931500D01*
X12144500Y-8110500D02*
X12219500Y-8185500D01*
X12219500Y-8110500D02*
X12144500Y-8185500D01*
X14657500Y-7983500D02*
X14732500Y-8058500D01*
X14732500Y-7983500D02*
X14657500Y-8058500D01*
X14784500Y-7856500D02*
X14859500Y-7931500D01*
X14859500Y-7856500D02*
X14784500Y-7931500D01*
X14784500Y-8110500D02*
X14859500Y-8185500D01*
X14859500Y-8110500D02*
X14784500Y-8185500D01*
X10540000Y-6050000D02*
G75*
G03*
X10540000Y-6050000I-40000J0D01*
G01*
X10540000Y-6450000D02*
G75*
G03*
X10540000Y-6450000I-40000J0D01*
G01*
X10540000Y-6650000D02*
G75*
G03*
X10540000Y-6650000I-40000J0D01*
G01*
X10540000Y-6850000D02*
G75*
G03*
X10540000Y-6850000I-40000J0D01*
G01*
X10840000Y-6050000D02*
G75*
G03*
X10840000Y-6050000I-40000J0D01*
G01*
X10840000Y-6450000D02*
G75*
G03*
X10840000Y-6450000I-40000J0D01*
G01*
X10840000Y-6650000D02*
G75*
G03*
X10840000Y-6650000I-40000J0D01*
G01*
X10840000Y-6850000D02*
G75*
G03*
X10840000Y-6850000I-40000J0D01*
G01*
X10941000Y-7464000D02*
G75*
G03*
X10941000Y-7464000I-40000J0D01*
G01*
X10941000Y-8226000D02*
G75*
G03*
X10941000Y-8226000I-40000J0D01*
G01*
X11556000Y-7556000D02*
G75*
G03*
X11556000Y-7556000I-40000J0D01*
G01*
X11575500Y-6050000D02*
G75*
G03*
X11575500Y-6050000I-40000J0D01*
G01*
X11575500Y-6450000D02*
G75*
G03*
X11575500Y-6450000I-40000J0D01*
G01*
X11575500Y-6850000D02*
G75*
G03*
X11575500Y-6850000I-40000J0D01*
G01*
X11829500Y-6050000D02*
G75*
G03*
X11829500Y-6050000I-40000J0D01*
G01*
X11829500Y-6450000D02*
G75*
G03*
X11829500Y-6450000I-40000J0D01*
G01*
X11829500Y-6850000D02*
G75*
G03*
X11829500Y-6850000I-40000J0D01*
G01*
X12318000Y-7556000D02*
G75*
G03*
X12318000Y-7556000I-40000J0D01*
G01*
X12573000Y-7469000D02*
G75*
G03*
X12573000Y-7469000I-40000J0D01*
G01*
X12573000Y-8231000D02*
G75*
G03*
X12573000Y-8231000I-40000J0D01*
G01*
X12652200Y-12824000D02*
G75*
G03*
X12652200Y-12824000I-40000J0D01*
G01*
X12652200Y-13159000D02*
G75*
G03*
X12652200Y-13159000I-40000J0D01*
G01*
X12973000Y-7469000D02*
G75*
G03*
X12973000Y-7469000I-40000J0D01*
G01*
X12973000Y-8231000D02*
G75*
G03*
X12973000Y-8231000I-40000J0D01*
G01*
X13152200Y-12824000D02*
G75*
G03*
X13152200Y-12824000I-40000J0D01*
G01*
X13152200Y-13159000D02*
G75*
G03*
X13152200Y-13159000I-40000J0D01*
G01*
X13273000Y-7469000D02*
G75*
G03*
X13273000Y-7469000I-40000J0D01*
G01*
X13273000Y-8231000D02*
G75*
G03*
X13273000Y-8231000I-40000J0D01*
G01*
X13573000Y-7469000D02*
G75*
G03*
X13573000Y-7469000I-40000J0D01*
G01*
X13573000Y-8231000D02*
G75*
G03*
X13573000Y-8231000I-40000J0D01*
G01*
X14196000Y-7561000D02*
G75*
G03*
X14196000Y-7561000I-40000J0D01*
G01*
X14840000Y-9719000D02*
G75*
G03*
X14840000Y-9719000I-40000J0D01*
G01*
X14840000Y-10481000D02*
G75*
G03*
X14840000Y-10481000I-40000J0D01*
G01*
X14958000Y-7561000D02*
G75*
G03*
X14958000Y-7561000I-40000J0D01*
G01*
X15140000Y-9719000D02*
G75*
G03*
X15140000Y-9719000I-40000J0D01*
G01*
X15140000Y-10481000D02*
G75*
G03*
X15140000Y-10481000I-40000J0D01*
G01*
X15213000Y-7471500D02*
G75*
G03*
X15213000Y-7471500I-40000J0D01*
G01*
X15213000Y-8233500D02*
G75*
G03*
X15213000Y-8233500I-40000J0D01*
G01*
X15257356Y-10800000D02*
G75*
G03*
X15257356Y-10800000I-40000J0D01*
G01*
X15257356Y-11300000D02*
G75*
G03*
X15257356Y-11300000I-40000J0D01*
G01*
X15257356Y-11554000D02*
G75*
G03*
X15257356Y-11554000I-40000J0D01*
G01*
X15257356Y-12054000D02*
G75*
G03*
X15257356Y-12054000I-40000J0D01*
G01*
X15440000Y-9719000D02*
G75*
G03*
X15440000Y-9719000I-40000J0D01*
G01*
X15440000Y-10481000D02*
G75*
G03*
X15440000Y-10481000I-40000J0D01*
G01*
X10483000Y-8550000D02*
X10483000Y-8650000D01*
X10433000Y-8600000D02*
X10533000Y-8600000D01*
X10483000Y-12614000D02*
X10483000Y-12714000D01*
X10433000Y-12664000D02*
X10533000Y-12664000D01*
X11276000Y-7816000D02*
X11276000Y-7916000D01*
X11226000Y-7866000D02*
X11326000Y-7866000D01*
X11276000Y-8126000D02*
X11276000Y-8226000D01*
X11226000Y-8176000D02*
X11326000Y-8176000D01*
X11784000Y-7816000D02*
X11784000Y-7916000D01*
X11734000Y-7866000D02*
X11834000Y-7866000D01*
X11784000Y-8126000D02*
X11784000Y-8226000D01*
X11734000Y-8176000D02*
X11834000Y-8176000D01*
X12261000Y-8550000D02*
X12261000Y-8650000D01*
X12211000Y-8600000D02*
X12311000Y-8600000D01*
X12261000Y-12614000D02*
X12261000Y-12714000D01*
X12211000Y-12664000D02*
X12311000Y-12664000D01*
X12961400Y-8775500D02*
X12961400Y-8875500D01*
X12911400Y-8825500D02*
X13011400Y-8825500D01*
X13187200Y-10553500D02*
X13187200Y-10653500D01*
X13137200Y-10603500D02*
X13237200Y-10603500D01*
X13311400Y-8775500D02*
X13311400Y-8875500D01*
X13261400Y-8825500D02*
X13361400Y-8825500D01*
X13325000Y-11250000D02*
X13325000Y-11350000D01*
X13275000Y-11300000D02*
X13375000Y-11300000D01*
X13325000Y-11504000D02*
X13325000Y-11604000D01*
X13275000Y-11554000D02*
X13375000Y-11554000D01*
X13325000Y-11758000D02*
X13325000Y-11858000D01*
X13275000Y-11808000D02*
X13375000Y-11808000D01*
X13325000Y-12012000D02*
X13325000Y-12112000D01*
X13275000Y-12062000D02*
X13375000Y-12062000D01*
X13325000Y-12266000D02*
X13325000Y-12366000D01*
X13275000Y-12316000D02*
X13375000Y-12316000D01*
X13325000Y-12520000D02*
X13325000Y-12620000D01*
X13275000Y-12570000D02*
X13375000Y-12570000D01*
X13325000Y-12774000D02*
X13325000Y-12874000D01*
X13275000Y-12824000D02*
X13375000Y-12824000D01*
X13441200Y-10553500D02*
X13441200Y-10653500D01*
X13391200Y-10603500D02*
X13491200Y-10603500D01*
X13695200Y-10553500D02*
X13695200Y-10653500D01*
X13645200Y-10603500D02*
X13745200Y-10603500D01*
X13825000Y-8775500D02*
X13825000Y-8875500D01*
X13775000Y-8825500D02*
X13875000Y-8825500D01*
X13908000Y-7816000D02*
X13908000Y-7916000D01*
X13858000Y-7866000D02*
X13958000Y-7866000D01*
X13908000Y-8126000D02*
X13908000Y-8226000D01*
X13858000Y-8176000D02*
X13958000Y-8176000D01*
X13949200Y-10553500D02*
X13949200Y-10653500D01*
X13899200Y-10603500D02*
X13999200Y-10603500D01*
X14175000Y-8775500D02*
X14175000Y-8875500D01*
X14125000Y-8825500D02*
X14225000Y-8825500D01*
X14416000Y-7816000D02*
X14416000Y-7916000D01*
X14366000Y-7866000D02*
X14466000Y-7866000D01*
X14416000Y-8126000D02*
X14416000Y-8226000D01*
X14366000Y-8176000D02*
X14466000Y-8176000D01*
X14941456Y-11250000D02*
X14941456Y-11350000D01*
X14891456Y-11300000D02*
X14991456Y-11300000D01*
X14941456Y-11504000D02*
X14941456Y-11604000D01*
X14891456Y-11554000D02*
X14991456Y-11554000D01*
X14941456Y-11758000D02*
X14941456Y-11858000D01*
X14891456Y-11808000D02*
X14991456Y-11808000D01*
X14941456Y-12012000D02*
X14941456Y-12112000D01*
X14891456Y-12062000D02*
X14991456Y-12062000D01*
X14941456Y-12266000D02*
X14941456Y-12366000D01*
X14891456Y-12316000D02*
X14991456Y-12316000D01*
X14941456Y-12520000D02*
X14941456Y-12620000D01*
X14891456Y-12570000D02*
X14991456Y-12570000D01*
X14941456Y-12774000D02*
X14941456Y-12874000D01*
X14891456Y-12824000D02*
X14991456Y-12824000D01*
D12*
X13097123Y-5787123D02*
X13097123Y-5712876D01*
X13022876Y-5712876D01*
X13022876Y-5787123D01*
X13097123Y-5787123D01*
X13347123Y-5787123D02*
X13347123Y-5712876D01*
X13272876Y-5712876D01*
X13272876Y-5787123D01*
X13347123Y-5787123D01*
X13597123Y-5787123D02*
X13597123Y-5712876D01*
X13522876Y-5712876D01*
X13522876Y-5787123D01*
X13597123Y-5787123D01*
X14597123Y-5787123D02*
X14597123Y-5712876D01*
X14522876Y-5712876D01*
X14522876Y-5787123D01*
X14597123Y-5787123D01*
X14847123Y-5787123D02*
X14847123Y-5712876D01*
X14772876Y-5712876D01*
X14772876Y-5787123D01*
X14847123Y-5787123D01*
X15097123Y-5787123D02*
X15097123Y-5712876D01*
X15022876Y-5712876D01*
X15022876Y-5787123D01*
X15097123Y-5787123D01*
D13*
X10300000Y-5761000D02*
X10360000Y-5701000D01*
X10300000Y-5641000D01*
X10240000Y-5701000D01*
X10300000Y-5761000D01*
X11000000Y-7269000D02*
X11060000Y-7209000D01*
X11000000Y-7149000D01*
X10940000Y-7209000D01*
X11000000Y-7269000D01*
X11325000Y-5770000D02*
X11385000Y-5710000D01*
X11325000Y-5650000D01*
X11265000Y-5710000D01*
X11325000Y-5770000D01*
X11325000Y-7270000D02*
X11385000Y-7210000D01*
X11325000Y-7150000D01*
X11265000Y-7210000D01*
X11325000Y-7270000D01*
X12000000Y-5770000D02*
X12060000Y-5710000D01*
X12000000Y-5650000D01*
X11940000Y-5710000D01*
X12000000Y-5770000D01*
X12000000Y-7270000D02*
X12060000Y-7210000D01*
X12000000Y-7150000D01*
X11940000Y-7210000D01*
X12000000Y-7270000D01*
D14*
X11087500Y-13192000D02*
X11212500Y-13317000D01*
X11212500Y-13192000D02*
X11087500Y-13317000D01*
X11212500Y-13254500D02*
G75*
G03*
X11212500Y-13254500I-62500J0D01*
G01*
X11595500Y-13192000D02*
X11720500Y-13317000D01*
X11720500Y-13192000D02*
X11595500Y-13317000D01*
X11720500Y-13254500D02*
G75*
G03*
X11720500Y-13254500I-62500J0D01*
G01*
X13833500Y-5137500D02*
X13958500Y-5262500D01*
X13958500Y-5137500D02*
X13833500Y-5262500D01*
X13958500Y-5200000D02*
G75*
G03*
X13958500Y-5200000I-62500J0D01*
G01*
X14341500Y-5137500D02*
X14466500Y-5262500D01*
X14466500Y-5137500D02*
X14341500Y-5262500D01*
X14466500Y-5200000D02*
G75*
G03*
X14466500Y-5200000I-62500J0D01*
G01*
D15*
X12720000Y-6325000D02*
X12970000Y-6575000D01*
X12970000Y-6325000D02*
X12720000Y-6575000D01*
X12845000Y-6325000D02*
X12845000Y-6575000D01*
X12720000Y-6450000D02*
X12970000Y-6450000D01*
X13650000Y-6325000D02*
X13900000Y-6575000D01*
X13900000Y-6325000D02*
X13650000Y-6575000D01*
X13775000Y-6325000D02*
X13775000Y-6575000D01*
X13650000Y-6450000D02*
X13900000Y-6450000D01*
X14220000Y-6325000D02*
X14470000Y-6575000D01*
X14470000Y-6325000D02*
X14220000Y-6575000D01*
X14345000Y-6325000D02*
X14345000Y-6575000D01*
X14220000Y-6450000D02*
X14470000Y-6450000D01*
X15150000Y-6325000D02*
X15400000Y-6575000D01*
X15400000Y-6325000D02*
X15150000Y-6575000D01*
X15275000Y-6325000D02*
X15275000Y-6575000D01*
X15150000Y-6450000D02*
X15400000Y-6450000D01*
D11*
X10255777Y-14016484D02*
X10255777Y-13816484D01*
X10255777Y-13816484D02*
X10303396Y-13816484D01*
X10303396Y-13816484D02*
X10331967Y-13826008D01*
X10331967Y-13826008D02*
X10351015Y-13845055D01*
X10351015Y-13845055D02*
X10360539Y-13864103D01*
X10360539Y-13864103D02*
X10370063Y-13902198D01*
X10370063Y-13902198D02*
X10370063Y-13930769D01*
X10370063Y-13930769D02*
X10360539Y-13968865D01*
X10360539Y-13968865D02*
X10351015Y-13987912D01*
X10351015Y-13987912D02*
X10331967Y-14006960D01*
X10331967Y-14006960D02*
X10303396Y-14016484D01*
X10303396Y-14016484D02*
X10255777Y-14016484D01*
X10455777Y-14016484D02*
X10455777Y-13883150D01*
X10455777Y-13921246D02*
X10465301Y-13902198D01*
X10465301Y-13902198D02*
X10474824Y-13892674D01*
X10474824Y-13892674D02*
X10493872Y-13883150D01*
X10493872Y-13883150D02*
X10512920Y-13883150D01*
X10579586Y-14016484D02*
X10579586Y-13883150D01*
X10579586Y-13816484D02*
X10570063Y-13826008D01*
X10570063Y-13826008D02*
X10579586Y-13835531D01*
X10579586Y-13835531D02*
X10589110Y-13826008D01*
X10589110Y-13826008D02*
X10579586Y-13816484D01*
X10579586Y-13816484D02*
X10579586Y-13835531D01*
X10703396Y-14016484D02*
X10684348Y-14006960D01*
X10684348Y-14006960D02*
X10674824Y-13987912D01*
X10674824Y-13987912D02*
X10674824Y-13816484D01*
X10808158Y-14016484D02*
X10789110Y-14006960D01*
X10789110Y-14006960D02*
X10779586Y-13987912D01*
X10779586Y-13987912D02*
X10779586Y-13816484D01*
X11036729Y-14016484D02*
X11036729Y-13816484D01*
X11036729Y-13816484D02*
X11103396Y-13959341D01*
X11103396Y-13959341D02*
X11170063Y-13816484D01*
X11170063Y-13816484D02*
X11170063Y-14016484D01*
X11351015Y-14016484D02*
X11351015Y-13911722D01*
X11351015Y-13911722D02*
X11341491Y-13892674D01*
X11341491Y-13892674D02*
X11322443Y-13883150D01*
X11322443Y-13883150D02*
X11284348Y-13883150D01*
X11284348Y-13883150D02*
X11265301Y-13892674D01*
X11351015Y-14006960D02*
X11331967Y-14016484D01*
X11331967Y-14016484D02*
X11284348Y-14016484D01*
X11284348Y-14016484D02*
X11265301Y-14006960D01*
X11265301Y-14006960D02*
X11255777Y-13987912D01*
X11255777Y-13987912D02*
X11255777Y-13968865D01*
X11255777Y-13968865D02*
X11265301Y-13949817D01*
X11265301Y-13949817D02*
X11284348Y-13940293D01*
X11284348Y-13940293D02*
X11331967Y-13940293D01*
X11331967Y-13940293D02*
X11351015Y-13930769D01*
X11446253Y-13883150D02*
X11446253Y-14083150D01*
X11446253Y-13892674D02*
X11465301Y-13883150D01*
X11465301Y-13883150D02*
X11503396Y-13883150D01*
X11503396Y-13883150D02*
X11522443Y-13892674D01*
X11522443Y-13892674D02*
X11531967Y-13902198D01*
X11531967Y-13902198D02*
X11541491Y-13921246D01*
X11541491Y-13921246D02*
X11541491Y-13978388D01*
X11541491Y-13978388D02*
X11531967Y-13997436D01*
X11531967Y-13997436D02*
X11522443Y-14006960D01*
X11522443Y-14006960D02*
X11503396Y-14016484D01*
X11503396Y-14016484D02*
X11465301Y-14016484D01*
X11465301Y-14016484D02*
X11446253Y-14006960D01*
X11627205Y-13997436D02*
X11636729Y-14006960D01*
X11636729Y-14006960D02*
X11627205Y-14016484D01*
X11627205Y-14016484D02*
X11617682Y-14006960D01*
X11617682Y-14006960D02*
X11627205Y-13997436D01*
X11627205Y-13997436D02*
X11627205Y-14016484D01*
X11627205Y-13892674D02*
X11636729Y-13902198D01*
X11636729Y-13902198D02*
X11627205Y-13911722D01*
X11627205Y-13911722D02*
X11617682Y-13902198D01*
X11617682Y-13902198D02*
X11627205Y-13892674D01*
X11627205Y-13892674D02*
X11627205Y-13911722D01*
D10*
X9920000Y-14307500D02*
X9995000Y-14382500D01*
X9995000Y-14307500D02*
X9920000Y-14382500D01*
D11*
X10293872Y-14236484D02*
X10312920Y-14236484D01*
X10312920Y-14236484D02*
X10331967Y-14246008D01*
X10331967Y-14246008D02*
X10341491Y-14255531D01*
X10341491Y-14255531D02*
X10351015Y-14274579D01*
X10351015Y-14274579D02*
X10360539Y-14312674D01*
X10360539Y-14312674D02*
X10360539Y-14360293D01*
X10360539Y-14360293D02*
X10351015Y-14398388D01*
X10351015Y-14398388D02*
X10341491Y-14417436D01*
X10341491Y-14417436D02*
X10331967Y-14426960D01*
X10331967Y-14426960D02*
X10312920Y-14436484D01*
X10312920Y-14436484D02*
X10293872Y-14436484D01*
X10293872Y-14436484D02*
X10274824Y-14426960D01*
X10274824Y-14426960D02*
X10265301Y-14417436D01*
X10265301Y-14417436D02*
X10255777Y-14398388D01*
X10255777Y-14398388D02*
X10246253Y-14360293D01*
X10246253Y-14360293D02*
X10246253Y-14312674D01*
X10246253Y-14312674D02*
X10255777Y-14274579D01*
X10255777Y-14274579D02*
X10265301Y-14255531D01*
X10265301Y-14255531D02*
X10274824Y-14246008D01*
X10274824Y-14246008D02*
X10293872Y-14236484D01*
X10446253Y-14417436D02*
X10455777Y-14426960D01*
X10455777Y-14426960D02*
X10446253Y-14436484D01*
X10446253Y-14436484D02*
X10436729Y-14426960D01*
X10436729Y-14426960D02*
X10446253Y-14417436D01*
X10446253Y-14417436D02*
X10446253Y-14436484D01*
X10522444Y-14236484D02*
X10655777Y-14236484D01*
X10655777Y-14236484D02*
X10570063Y-14436484D01*
X10827205Y-14236484D02*
X10731967Y-14236484D01*
X10731967Y-14236484D02*
X10722444Y-14331722D01*
X10722444Y-14331722D02*
X10731967Y-14322198D01*
X10731967Y-14322198D02*
X10751015Y-14312674D01*
X10751015Y-14312674D02*
X10798634Y-14312674D01*
X10798634Y-14312674D02*
X10817682Y-14322198D01*
X10817682Y-14322198D02*
X10827205Y-14331722D01*
X10827205Y-14331722D02*
X10836729Y-14350769D01*
X10836729Y-14350769D02*
X10836729Y-14398388D01*
X10836729Y-14398388D02*
X10827205Y-14417436D01*
X10827205Y-14417436D02*
X10817682Y-14426960D01*
X10817682Y-14426960D02*
X10798634Y-14436484D01*
X10798634Y-14436484D02*
X10751015Y-14436484D01*
X10751015Y-14436484D02*
X10731967Y-14426960D01*
X10731967Y-14426960D02*
X10722444Y-14417436D01*
X10960539Y-14236484D02*
X10979586Y-14236484D01*
X10979586Y-14236484D02*
X10998634Y-14246008D01*
X10998634Y-14246008D02*
X11008158Y-14255531D01*
X11008158Y-14255531D02*
X11017682Y-14274579D01*
X11017682Y-14274579D02*
X11027205Y-14312674D01*
X11027205Y-14312674D02*
X11027205Y-14360293D01*
X11027205Y-14360293D02*
X11017682Y-14398388D01*
X11017682Y-14398388D02*
X11008158Y-14417436D01*
X11008158Y-14417436D02*
X10998634Y-14426960D01*
X10998634Y-14426960D02*
X10979586Y-14436484D01*
X10979586Y-14436484D02*
X10960539Y-14436484D01*
X10960539Y-14436484D02*
X10941491Y-14426960D01*
X10941491Y-14426960D02*
X10931967Y-14417436D01*
X10931967Y-14417436D02*
X10922444Y-14398388D01*
X10922444Y-14398388D02*
X10912920Y-14360293D01*
X10912920Y-14360293D02*
X10912920Y-14312674D01*
X10912920Y-14312674D02*
X10922444Y-14274579D01*
X10922444Y-14274579D02*
X10931967Y-14255531D01*
X10931967Y-14255531D02*
X10941491Y-14246008D01*
X10941491Y-14246008D02*
X10960539Y-14236484D01*
X11112920Y-14436484D02*
X11112920Y-14303150D01*
X11112920Y-14322198D02*
X11122444Y-14312674D01*
X11122444Y-14312674D02*
X11141491Y-14303150D01*
X11141491Y-14303150D02*
X11170063Y-14303150D01*
X11170063Y-14303150D02*
X11189110Y-14312674D01*
X11189110Y-14312674D02*
X11198634Y-14331722D01*
X11198634Y-14331722D02*
X11198634Y-14436484D01*
X11198634Y-14331722D02*
X11208158Y-14312674D01*
X11208158Y-14312674D02*
X11227205Y-14303150D01*
X11227205Y-14303150D02*
X11255777Y-14303150D01*
X11255777Y-14303150D02*
X11274824Y-14312674D01*
X11274824Y-14312674D02*
X11284348Y-14331722D01*
X11284348Y-14331722D02*
X11284348Y-14436484D01*
X11379586Y-14436484D02*
X11379586Y-14303150D01*
X11379586Y-14322198D02*
X11389110Y-14312674D01*
X11389110Y-14312674D02*
X11408158Y-14303150D01*
X11408158Y-14303150D02*
X11436729Y-14303150D01*
X11436729Y-14303150D02*
X11455777Y-14312674D01*
X11455777Y-14312674D02*
X11465301Y-14331722D01*
X11465301Y-14331722D02*
X11465301Y-14436484D01*
X11465301Y-14331722D02*
X11474824Y-14312674D01*
X11474824Y-14312674D02*
X11493872Y-14303150D01*
X11493872Y-14303150D02*
X11522443Y-14303150D01*
X11522443Y-14303150D02*
X11541491Y-14312674D01*
X11541491Y-14312674D02*
X11551015Y-14331722D01*
X11551015Y-14331722D02*
X11551015Y-14436484D01*
X11941491Y-14226960D02*
X11770063Y-14484103D01*
X12198634Y-14236484D02*
X12217682Y-14236484D01*
X12217682Y-14236484D02*
X12236729Y-14246008D01*
X12236729Y-14246008D02*
X12246253Y-14255531D01*
X12246253Y-14255531D02*
X12255777Y-14274579D01*
X12255777Y-14274579D02*
X12265301Y-14312674D01*
X12265301Y-14312674D02*
X12265301Y-14360293D01*
X12265301Y-14360293D02*
X12255777Y-14398388D01*
X12255777Y-14398388D02*
X12246253Y-14417436D01*
X12246253Y-14417436D02*
X12236729Y-14426960D01*
X12236729Y-14426960D02*
X12217682Y-14436484D01*
X12217682Y-14436484D02*
X12198634Y-14436484D01*
X12198634Y-14436484D02*
X12179586Y-14426960D01*
X12179586Y-14426960D02*
X12170063Y-14417436D01*
X12170063Y-14417436D02*
X12160539Y-14398388D01*
X12160539Y-14398388D02*
X12151015Y-14360293D01*
X12151015Y-14360293D02*
X12151015Y-14312674D01*
X12151015Y-14312674D02*
X12160539Y-14274579D01*
X12160539Y-14274579D02*
X12170063Y-14255531D01*
X12170063Y-14255531D02*
X12179586Y-14246008D01*
X12179586Y-14246008D02*
X12198634Y-14236484D01*
X12351015Y-14417436D02*
X12360539Y-14426960D01*
X12360539Y-14426960D02*
X12351015Y-14436484D01*
X12351015Y-14436484D02*
X12341491Y-14426960D01*
X12341491Y-14426960D02*
X12351015Y-14417436D01*
X12351015Y-14417436D02*
X12351015Y-14436484D01*
X12484348Y-14236484D02*
X12503396Y-14236484D01*
X12503396Y-14236484D02*
X12522444Y-14246008D01*
X12522444Y-14246008D02*
X12531967Y-14255531D01*
X12531967Y-14255531D02*
X12541491Y-14274579D01*
X12541491Y-14274579D02*
X12551015Y-14312674D01*
X12551015Y-14312674D02*
X12551015Y-14360293D01*
X12551015Y-14360293D02*
X12541491Y-14398388D01*
X12541491Y-14398388D02*
X12531967Y-14417436D01*
X12531967Y-14417436D02*
X12522444Y-14426960D01*
X12522444Y-14426960D02*
X12503396Y-14436484D01*
X12503396Y-14436484D02*
X12484348Y-14436484D01*
X12484348Y-14436484D02*
X12465301Y-14426960D01*
X12465301Y-14426960D02*
X12455777Y-14417436D01*
X12455777Y-14417436D02*
X12446253Y-14398388D01*
X12446253Y-14398388D02*
X12436729Y-14360293D01*
X12436729Y-14360293D02*
X12436729Y-14312674D01*
X12436729Y-14312674D02*
X12446253Y-14274579D01*
X12446253Y-14274579D02*
X12455777Y-14255531D01*
X12455777Y-14255531D02*
X12465301Y-14246008D01*
X12465301Y-14246008D02*
X12484348Y-14236484D01*
X12627206Y-14255531D02*
X12636729Y-14246008D01*
X12636729Y-14246008D02*
X12655777Y-14236484D01*
X12655777Y-14236484D02*
X12703396Y-14236484D01*
X12703396Y-14236484D02*
X12722444Y-14246008D01*
X12722444Y-14246008D02*
X12731967Y-14255531D01*
X12731967Y-14255531D02*
X12741491Y-14274579D01*
X12741491Y-14274579D02*
X12741491Y-14293627D01*
X12741491Y-14293627D02*
X12731967Y-14322198D01*
X12731967Y-14322198D02*
X12617682Y-14436484D01*
X12617682Y-14436484D02*
X12741491Y-14436484D01*
X12836729Y-14436484D02*
X12874825Y-14436484D01*
X12874825Y-14436484D02*
X12893872Y-14426960D01*
X12893872Y-14426960D02*
X12903396Y-14417436D01*
X12903396Y-14417436D02*
X12922444Y-14388865D01*
X12922444Y-14388865D02*
X12931967Y-14350769D01*
X12931967Y-14350769D02*
X12931967Y-14274579D01*
X12931967Y-14274579D02*
X12922444Y-14255531D01*
X12922444Y-14255531D02*
X12912920Y-14246008D01*
X12912920Y-14246008D02*
X12893872Y-14236484D01*
X12893872Y-14236484D02*
X12855777Y-14236484D01*
X12855777Y-14236484D02*
X12836729Y-14246008D01*
X12836729Y-14246008D02*
X12827206Y-14255531D01*
X12827206Y-14255531D02*
X12817682Y-14274579D01*
X12817682Y-14274579D02*
X12817682Y-14322198D01*
X12817682Y-14322198D02*
X12827206Y-14341246D01*
X12827206Y-14341246D02*
X12836729Y-14350769D01*
X12836729Y-14350769D02*
X12855777Y-14360293D01*
X12855777Y-14360293D02*
X12893872Y-14360293D01*
X12893872Y-14360293D02*
X12912920Y-14350769D01*
X12912920Y-14350769D02*
X12922444Y-14341246D01*
X12922444Y-14341246D02*
X12931967Y-14322198D01*
X13112920Y-14236484D02*
X13017682Y-14236484D01*
X13017682Y-14236484D02*
X13008158Y-14331722D01*
X13008158Y-14331722D02*
X13017682Y-14322198D01*
X13017682Y-14322198D02*
X13036729Y-14312674D01*
X13036729Y-14312674D02*
X13084348Y-14312674D01*
X13084348Y-14312674D02*
X13103396Y-14322198D01*
X13103396Y-14322198D02*
X13112920Y-14331722D01*
X13112920Y-14331722D02*
X13122444Y-14350769D01*
X13122444Y-14350769D02*
X13122444Y-14398388D01*
X13122444Y-14398388D02*
X13112920Y-14417436D01*
X13112920Y-14417436D02*
X13103396Y-14426960D01*
X13103396Y-14426960D02*
X13084348Y-14436484D01*
X13084348Y-14436484D02*
X13036729Y-14436484D01*
X13036729Y-14436484D02*
X13017682Y-14426960D01*
X13017682Y-14426960D02*
X13008158Y-14417436D01*
X13198634Y-14236484D02*
X13198634Y-14274579D01*
X13274825Y-14236484D02*
X13274825Y-14274579D01*
X13570063Y-14512674D02*
X13560539Y-14503150D01*
X13560539Y-14503150D02*
X13541491Y-14474579D01*
X13541491Y-14474579D02*
X13531968Y-14455531D01*
X13531968Y-14455531D02*
X13522444Y-14426960D01*
X13522444Y-14426960D02*
X13512920Y-14379341D01*
X13512920Y-14379341D02*
X13512920Y-14341246D01*
X13512920Y-14341246D02*
X13522444Y-14293627D01*
X13522444Y-14293627D02*
X13531968Y-14265055D01*
X13531968Y-14265055D02*
X13541491Y-14246008D01*
X13541491Y-14246008D02*
X13560539Y-14217436D01*
X13560539Y-14217436D02*
X13570063Y-14207912D01*
X13655777Y-14436484D02*
X13693872Y-14436484D01*
X13693872Y-14436484D02*
X13712920Y-14426960D01*
X13712920Y-14426960D02*
X13722444Y-14417436D01*
X13722444Y-14417436D02*
X13741491Y-14388865D01*
X13741491Y-14388865D02*
X13751015Y-14350769D01*
X13751015Y-14350769D02*
X13751015Y-14274579D01*
X13751015Y-14274579D02*
X13741491Y-14255531D01*
X13741491Y-14255531D02*
X13731968Y-14246008D01*
X13731968Y-14246008D02*
X13712920Y-14236484D01*
X13712920Y-14236484D02*
X13674825Y-14236484D01*
X13674825Y-14236484D02*
X13655777Y-14246008D01*
X13655777Y-14246008D02*
X13646253Y-14255531D01*
X13646253Y-14255531D02*
X13636729Y-14274579D01*
X13636729Y-14274579D02*
X13636729Y-14322198D01*
X13636729Y-14322198D02*
X13646253Y-14341246D01*
X13646253Y-14341246D02*
X13655777Y-14350769D01*
X13655777Y-14350769D02*
X13674825Y-14360293D01*
X13674825Y-14360293D02*
X13712920Y-14360293D01*
X13712920Y-14360293D02*
X13731968Y-14350769D01*
X13731968Y-14350769D02*
X13741491Y-14341246D01*
X13741491Y-14341246D02*
X13751015Y-14322198D01*
X13989110Y-14436484D02*
X13989110Y-14236484D01*
X14074825Y-14436484D02*
X14074825Y-14331722D01*
X14074825Y-14331722D02*
X14065301Y-14312674D01*
X14065301Y-14312674D02*
X14046253Y-14303150D01*
X14046253Y-14303150D02*
X14017682Y-14303150D01*
X14017682Y-14303150D02*
X13998634Y-14312674D01*
X13998634Y-14312674D02*
X13989110Y-14322198D01*
X14198634Y-14436484D02*
X14179587Y-14426960D01*
X14179587Y-14426960D02*
X14170063Y-14417436D01*
X14170063Y-14417436D02*
X14160539Y-14398388D01*
X14160539Y-14398388D02*
X14160539Y-14341246D01*
X14160539Y-14341246D02*
X14170063Y-14322198D01*
X14170063Y-14322198D02*
X14179587Y-14312674D01*
X14179587Y-14312674D02*
X14198634Y-14303150D01*
X14198634Y-14303150D02*
X14227206Y-14303150D01*
X14227206Y-14303150D02*
X14246253Y-14312674D01*
X14246253Y-14312674D02*
X14255777Y-14322198D01*
X14255777Y-14322198D02*
X14265301Y-14341246D01*
X14265301Y-14341246D02*
X14265301Y-14398388D01*
X14265301Y-14398388D02*
X14255777Y-14417436D01*
X14255777Y-14417436D02*
X14246253Y-14426960D01*
X14246253Y-14426960D02*
X14227206Y-14436484D01*
X14227206Y-14436484D02*
X14198634Y-14436484D01*
X14379587Y-14436484D02*
X14360539Y-14426960D01*
X14360539Y-14426960D02*
X14351015Y-14407912D01*
X14351015Y-14407912D02*
X14351015Y-14236484D01*
X14531968Y-14426960D02*
X14512920Y-14436484D01*
X14512920Y-14436484D02*
X14474825Y-14436484D01*
X14474825Y-14436484D02*
X14455777Y-14426960D01*
X14455777Y-14426960D02*
X14446253Y-14407912D01*
X14446253Y-14407912D02*
X14446253Y-14331722D01*
X14446253Y-14331722D02*
X14455777Y-14312674D01*
X14455777Y-14312674D02*
X14474825Y-14303150D01*
X14474825Y-14303150D02*
X14512920Y-14303150D01*
X14512920Y-14303150D02*
X14531968Y-14312674D01*
X14531968Y-14312674D02*
X14541491Y-14331722D01*
X14541491Y-14331722D02*
X14541491Y-14350769D01*
X14541491Y-14350769D02*
X14446253Y-14369817D01*
X14617682Y-14426960D02*
X14636730Y-14436484D01*
X14636730Y-14436484D02*
X14674825Y-14436484D01*
X14674825Y-14436484D02*
X14693872Y-14426960D01*
X14693872Y-14426960D02*
X14703396Y-14407912D01*
X14703396Y-14407912D02*
X14703396Y-14398388D01*
X14703396Y-14398388D02*
X14693872Y-14379341D01*
X14693872Y-14379341D02*
X14674825Y-14369817D01*
X14674825Y-14369817D02*
X14646253Y-14369817D01*
X14646253Y-14369817D02*
X14627206Y-14360293D01*
X14627206Y-14360293D02*
X14617682Y-14341246D01*
X14617682Y-14341246D02*
X14617682Y-14331722D01*
X14617682Y-14331722D02*
X14627206Y-14312674D01*
X14627206Y-14312674D02*
X14646253Y-14303150D01*
X14646253Y-14303150D02*
X14674825Y-14303150D01*
X14674825Y-14303150D02*
X14693872Y-14312674D01*
X14770063Y-14512674D02*
X14779587Y-14503150D01*
X14779587Y-14503150D02*
X14798634Y-14474579D01*
X14798634Y-14474579D02*
X14808158Y-14455531D01*
X14808158Y-14455531D02*
X14817682Y-14426960D01*
X14817682Y-14426960D02*
X14827206Y-14379341D01*
X14827206Y-14379341D02*
X14827206Y-14341246D01*
X14827206Y-14341246D02*
X14817682Y-14293627D01*
X14817682Y-14293627D02*
X14808158Y-14265055D01*
X14808158Y-14265055D02*
X14798634Y-14246008D01*
X14798634Y-14246008D02*
X14779587Y-14217436D01*
X14779587Y-14217436D02*
X14770063Y-14207912D01*
D10*
X9995000Y-14609000D02*
G75*
G03*
X9995000Y-14609000I-40000J0D01*
G01*
D11*
X10293872Y-14500484D02*
X10312920Y-14500484D01*
X10312920Y-14500484D02*
X10331967Y-14510008D01*
X10331967Y-14510008D02*
X10341491Y-14519531D01*
X10341491Y-14519531D02*
X10351015Y-14538579D01*
X10351015Y-14538579D02*
X10360539Y-14576674D01*
X10360539Y-14576674D02*
X10360539Y-14624293D01*
X10360539Y-14624293D02*
X10351015Y-14662388D01*
X10351015Y-14662388D02*
X10341491Y-14681436D01*
X10341491Y-14681436D02*
X10331967Y-14690960D01*
X10331967Y-14690960D02*
X10312920Y-14700484D01*
X10312920Y-14700484D02*
X10293872Y-14700484D01*
X10293872Y-14700484D02*
X10274824Y-14690960D01*
X10274824Y-14690960D02*
X10265301Y-14681436D01*
X10265301Y-14681436D02*
X10255777Y-14662388D01*
X10255777Y-14662388D02*
X10246253Y-14624293D01*
X10246253Y-14624293D02*
X10246253Y-14576674D01*
X10246253Y-14576674D02*
X10255777Y-14538579D01*
X10255777Y-14538579D02*
X10265301Y-14519531D01*
X10265301Y-14519531D02*
X10274824Y-14510008D01*
X10274824Y-14510008D02*
X10293872Y-14500484D01*
X10446253Y-14681436D02*
X10455777Y-14690960D01*
X10455777Y-14690960D02*
X10446253Y-14700484D01*
X10446253Y-14700484D02*
X10436729Y-14690960D01*
X10436729Y-14690960D02*
X10446253Y-14681436D01*
X10446253Y-14681436D02*
X10446253Y-14700484D01*
X10570063Y-14586198D02*
X10551015Y-14576674D01*
X10551015Y-14576674D02*
X10541491Y-14567150D01*
X10541491Y-14567150D02*
X10531967Y-14548103D01*
X10531967Y-14548103D02*
X10531967Y-14538579D01*
X10531967Y-14538579D02*
X10541491Y-14519531D01*
X10541491Y-14519531D02*
X10551015Y-14510008D01*
X10551015Y-14510008D02*
X10570063Y-14500484D01*
X10570063Y-14500484D02*
X10608158Y-14500484D01*
X10608158Y-14500484D02*
X10627205Y-14510008D01*
X10627205Y-14510008D02*
X10636729Y-14519531D01*
X10636729Y-14519531D02*
X10646253Y-14538579D01*
X10646253Y-14538579D02*
X10646253Y-14548103D01*
X10646253Y-14548103D02*
X10636729Y-14567150D01*
X10636729Y-14567150D02*
X10627205Y-14576674D01*
X10627205Y-14576674D02*
X10608158Y-14586198D01*
X10608158Y-14586198D02*
X10570063Y-14586198D01*
X10570063Y-14586198D02*
X10551015Y-14595722D01*
X10551015Y-14595722D02*
X10541491Y-14605246D01*
X10541491Y-14605246D02*
X10531967Y-14624293D01*
X10531967Y-14624293D02*
X10531967Y-14662388D01*
X10531967Y-14662388D02*
X10541491Y-14681436D01*
X10541491Y-14681436D02*
X10551015Y-14690960D01*
X10551015Y-14690960D02*
X10570063Y-14700484D01*
X10570063Y-14700484D02*
X10608158Y-14700484D01*
X10608158Y-14700484D02*
X10627205Y-14690960D01*
X10627205Y-14690960D02*
X10636729Y-14681436D01*
X10636729Y-14681436D02*
X10646253Y-14662388D01*
X10646253Y-14662388D02*
X10646253Y-14624293D01*
X10646253Y-14624293D02*
X10636729Y-14605246D01*
X10636729Y-14605246D02*
X10627205Y-14595722D01*
X10627205Y-14595722D02*
X10608158Y-14586198D01*
X10770063Y-14500484D02*
X10789110Y-14500484D01*
X10789110Y-14500484D02*
X10808158Y-14510008D01*
X10808158Y-14510008D02*
X10817682Y-14519531D01*
X10817682Y-14519531D02*
X10827205Y-14538579D01*
X10827205Y-14538579D02*
X10836729Y-14576674D01*
X10836729Y-14576674D02*
X10836729Y-14624293D01*
X10836729Y-14624293D02*
X10827205Y-14662388D01*
X10827205Y-14662388D02*
X10817682Y-14681436D01*
X10817682Y-14681436D02*
X10808158Y-14690960D01*
X10808158Y-14690960D02*
X10789110Y-14700484D01*
X10789110Y-14700484D02*
X10770063Y-14700484D01*
X10770063Y-14700484D02*
X10751015Y-14690960D01*
X10751015Y-14690960D02*
X10741491Y-14681436D01*
X10741491Y-14681436D02*
X10731967Y-14662388D01*
X10731967Y-14662388D02*
X10722444Y-14624293D01*
X10722444Y-14624293D02*
X10722444Y-14576674D01*
X10722444Y-14576674D02*
X10731967Y-14538579D01*
X10731967Y-14538579D02*
X10741491Y-14519531D01*
X10741491Y-14519531D02*
X10751015Y-14510008D01*
X10751015Y-14510008D02*
X10770063Y-14500484D01*
X10960539Y-14500484D02*
X10979586Y-14500484D01*
X10979586Y-14500484D02*
X10998634Y-14510008D01*
X10998634Y-14510008D02*
X11008158Y-14519531D01*
X11008158Y-14519531D02*
X11017682Y-14538579D01*
X11017682Y-14538579D02*
X11027205Y-14576674D01*
X11027205Y-14576674D02*
X11027205Y-14624293D01*
X11027205Y-14624293D02*
X11017682Y-14662388D01*
X11017682Y-14662388D02*
X11008158Y-14681436D01*
X11008158Y-14681436D02*
X10998634Y-14690960D01*
X10998634Y-14690960D02*
X10979586Y-14700484D01*
X10979586Y-14700484D02*
X10960539Y-14700484D01*
X10960539Y-14700484D02*
X10941491Y-14690960D01*
X10941491Y-14690960D02*
X10931967Y-14681436D01*
X10931967Y-14681436D02*
X10922444Y-14662388D01*
X10922444Y-14662388D02*
X10912920Y-14624293D01*
X10912920Y-14624293D02*
X10912920Y-14576674D01*
X10912920Y-14576674D02*
X10922444Y-14538579D01*
X10922444Y-14538579D02*
X10931967Y-14519531D01*
X10931967Y-14519531D02*
X10941491Y-14510008D01*
X10941491Y-14510008D02*
X10960539Y-14500484D01*
X11112920Y-14700484D02*
X11112920Y-14567150D01*
X11112920Y-14586198D02*
X11122444Y-14576674D01*
X11122444Y-14576674D02*
X11141491Y-14567150D01*
X11141491Y-14567150D02*
X11170063Y-14567150D01*
X11170063Y-14567150D02*
X11189110Y-14576674D01*
X11189110Y-14576674D02*
X11198634Y-14595722D01*
X11198634Y-14595722D02*
X11198634Y-14700484D01*
X11198634Y-14595722D02*
X11208158Y-14576674D01*
X11208158Y-14576674D02*
X11227205Y-14567150D01*
X11227205Y-14567150D02*
X11255777Y-14567150D01*
X11255777Y-14567150D02*
X11274824Y-14576674D01*
X11274824Y-14576674D02*
X11284348Y-14595722D01*
X11284348Y-14595722D02*
X11284348Y-14700484D01*
X11379586Y-14700484D02*
X11379586Y-14567150D01*
X11379586Y-14586198D02*
X11389110Y-14576674D01*
X11389110Y-14576674D02*
X11408158Y-14567150D01*
X11408158Y-14567150D02*
X11436729Y-14567150D01*
X11436729Y-14567150D02*
X11455777Y-14576674D01*
X11455777Y-14576674D02*
X11465301Y-14595722D01*
X11465301Y-14595722D02*
X11465301Y-14700484D01*
X11465301Y-14595722D02*
X11474824Y-14576674D01*
X11474824Y-14576674D02*
X11493872Y-14567150D01*
X11493872Y-14567150D02*
X11522443Y-14567150D01*
X11522443Y-14567150D02*
X11541491Y-14576674D01*
X11541491Y-14576674D02*
X11551015Y-14595722D01*
X11551015Y-14595722D02*
X11551015Y-14700484D01*
X11941491Y-14490960D02*
X11770063Y-14748103D01*
X12198634Y-14500484D02*
X12217682Y-14500484D01*
X12217682Y-14500484D02*
X12236729Y-14510008D01*
X12236729Y-14510008D02*
X12246253Y-14519531D01*
X12246253Y-14519531D02*
X12255777Y-14538579D01*
X12255777Y-14538579D02*
X12265301Y-14576674D01*
X12265301Y-14576674D02*
X12265301Y-14624293D01*
X12265301Y-14624293D02*
X12255777Y-14662388D01*
X12255777Y-14662388D02*
X12246253Y-14681436D01*
X12246253Y-14681436D02*
X12236729Y-14690960D01*
X12236729Y-14690960D02*
X12217682Y-14700484D01*
X12217682Y-14700484D02*
X12198634Y-14700484D01*
X12198634Y-14700484D02*
X12179586Y-14690960D01*
X12179586Y-14690960D02*
X12170063Y-14681436D01*
X12170063Y-14681436D02*
X12160539Y-14662388D01*
X12160539Y-14662388D02*
X12151015Y-14624293D01*
X12151015Y-14624293D02*
X12151015Y-14576674D01*
X12151015Y-14576674D02*
X12160539Y-14538579D01*
X12160539Y-14538579D02*
X12170063Y-14519531D01*
X12170063Y-14519531D02*
X12179586Y-14510008D01*
X12179586Y-14510008D02*
X12198634Y-14500484D01*
X12351015Y-14681436D02*
X12360539Y-14690960D01*
X12360539Y-14690960D02*
X12351015Y-14700484D01*
X12351015Y-14700484D02*
X12341491Y-14690960D01*
X12341491Y-14690960D02*
X12351015Y-14681436D01*
X12351015Y-14681436D02*
X12351015Y-14700484D01*
X12484348Y-14500484D02*
X12503396Y-14500484D01*
X12503396Y-14500484D02*
X12522444Y-14510008D01*
X12522444Y-14510008D02*
X12531967Y-14519531D01*
X12531967Y-14519531D02*
X12541491Y-14538579D01*
X12541491Y-14538579D02*
X12551015Y-14576674D01*
X12551015Y-14576674D02*
X12551015Y-14624293D01*
X12551015Y-14624293D02*
X12541491Y-14662388D01*
X12541491Y-14662388D02*
X12531967Y-14681436D01*
X12531967Y-14681436D02*
X12522444Y-14690960D01*
X12522444Y-14690960D02*
X12503396Y-14700484D01*
X12503396Y-14700484D02*
X12484348Y-14700484D01*
X12484348Y-14700484D02*
X12465301Y-14690960D01*
X12465301Y-14690960D02*
X12455777Y-14681436D01*
X12455777Y-14681436D02*
X12446253Y-14662388D01*
X12446253Y-14662388D02*
X12436729Y-14624293D01*
X12436729Y-14624293D02*
X12436729Y-14576674D01*
X12436729Y-14576674D02*
X12446253Y-14538579D01*
X12446253Y-14538579D02*
X12455777Y-14519531D01*
X12455777Y-14519531D02*
X12465301Y-14510008D01*
X12465301Y-14510008D02*
X12484348Y-14500484D01*
X12617682Y-14500484D02*
X12741491Y-14500484D01*
X12741491Y-14500484D02*
X12674825Y-14576674D01*
X12674825Y-14576674D02*
X12703396Y-14576674D01*
X12703396Y-14576674D02*
X12722444Y-14586198D01*
X12722444Y-14586198D02*
X12731967Y-14595722D01*
X12731967Y-14595722D02*
X12741491Y-14614769D01*
X12741491Y-14614769D02*
X12741491Y-14662388D01*
X12741491Y-14662388D02*
X12731967Y-14681436D01*
X12731967Y-14681436D02*
X12722444Y-14690960D01*
X12722444Y-14690960D02*
X12703396Y-14700484D01*
X12703396Y-14700484D02*
X12646253Y-14700484D01*
X12646253Y-14700484D02*
X12627206Y-14690960D01*
X12627206Y-14690960D02*
X12617682Y-14681436D01*
X12931967Y-14700484D02*
X12817682Y-14700484D01*
X12874825Y-14700484D02*
X12874825Y-14500484D01*
X12874825Y-14500484D02*
X12855777Y-14529055D01*
X12855777Y-14529055D02*
X12836729Y-14548103D01*
X12836729Y-14548103D02*
X12817682Y-14557627D01*
X13112920Y-14500484D02*
X13017682Y-14500484D01*
X13017682Y-14500484D02*
X13008158Y-14595722D01*
X13008158Y-14595722D02*
X13017682Y-14586198D01*
X13017682Y-14586198D02*
X13036729Y-14576674D01*
X13036729Y-14576674D02*
X13084348Y-14576674D01*
X13084348Y-14576674D02*
X13103396Y-14586198D01*
X13103396Y-14586198D02*
X13112920Y-14595722D01*
X13112920Y-14595722D02*
X13122444Y-14614769D01*
X13122444Y-14614769D02*
X13122444Y-14662388D01*
X13122444Y-14662388D02*
X13112920Y-14681436D01*
X13112920Y-14681436D02*
X13103396Y-14690960D01*
X13103396Y-14690960D02*
X13084348Y-14700484D01*
X13084348Y-14700484D02*
X13036729Y-14700484D01*
X13036729Y-14700484D02*
X13017682Y-14690960D01*
X13017682Y-14690960D02*
X13008158Y-14681436D01*
X13198634Y-14500484D02*
X13198634Y-14538579D01*
X13274825Y-14500484D02*
X13274825Y-14538579D01*
X13570063Y-14776674D02*
X13560539Y-14767150D01*
X13560539Y-14767150D02*
X13541491Y-14738579D01*
X13541491Y-14738579D02*
X13531968Y-14719531D01*
X13531968Y-14719531D02*
X13522444Y-14690960D01*
X13522444Y-14690960D02*
X13512920Y-14643341D01*
X13512920Y-14643341D02*
X13512920Y-14605246D01*
X13512920Y-14605246D02*
X13522444Y-14557627D01*
X13522444Y-14557627D02*
X13531968Y-14529055D01*
X13531968Y-14529055D02*
X13541491Y-14510008D01*
X13541491Y-14510008D02*
X13560539Y-14481436D01*
X13560539Y-14481436D02*
X13570063Y-14471912D01*
X13731968Y-14567150D02*
X13731968Y-14700484D01*
X13684348Y-14490960D02*
X13636729Y-14633817D01*
X13636729Y-14633817D02*
X13760539Y-14633817D01*
X13922444Y-14567150D02*
X13922444Y-14700484D01*
X13874825Y-14490960D02*
X13827206Y-14633817D01*
X13827206Y-14633817D02*
X13951015Y-14633817D01*
X14179587Y-14700484D02*
X14179587Y-14500484D01*
X14265301Y-14700484D02*
X14265301Y-14595722D01*
X14265301Y-14595722D02*
X14255777Y-14576674D01*
X14255777Y-14576674D02*
X14236730Y-14567150D01*
X14236730Y-14567150D02*
X14208158Y-14567150D01*
X14208158Y-14567150D02*
X14189110Y-14576674D01*
X14189110Y-14576674D02*
X14179587Y-14586198D01*
X14389110Y-14700484D02*
X14370063Y-14690960D01*
X14370063Y-14690960D02*
X14360539Y-14681436D01*
X14360539Y-14681436D02*
X14351015Y-14662388D01*
X14351015Y-14662388D02*
X14351015Y-14605246D01*
X14351015Y-14605246D02*
X14360539Y-14586198D01*
X14360539Y-14586198D02*
X14370063Y-14576674D01*
X14370063Y-14576674D02*
X14389110Y-14567150D01*
X14389110Y-14567150D02*
X14417682Y-14567150D01*
X14417682Y-14567150D02*
X14436730Y-14576674D01*
X14436730Y-14576674D02*
X14446253Y-14586198D01*
X14446253Y-14586198D02*
X14455777Y-14605246D01*
X14455777Y-14605246D02*
X14455777Y-14662388D01*
X14455777Y-14662388D02*
X14446253Y-14681436D01*
X14446253Y-14681436D02*
X14436730Y-14690960D01*
X14436730Y-14690960D02*
X14417682Y-14700484D01*
X14417682Y-14700484D02*
X14389110Y-14700484D01*
X14570063Y-14700484D02*
X14551015Y-14690960D01*
X14551015Y-14690960D02*
X14541491Y-14671912D01*
X14541491Y-14671912D02*
X14541491Y-14500484D01*
X14722444Y-14690960D02*
X14703396Y-14700484D01*
X14703396Y-14700484D02*
X14665301Y-14700484D01*
X14665301Y-14700484D02*
X14646253Y-14690960D01*
X14646253Y-14690960D02*
X14636730Y-14671912D01*
X14636730Y-14671912D02*
X14636730Y-14595722D01*
X14636730Y-14595722D02*
X14646253Y-14576674D01*
X14646253Y-14576674D02*
X14665301Y-14567150D01*
X14665301Y-14567150D02*
X14703396Y-14567150D01*
X14703396Y-14567150D02*
X14722444Y-14576674D01*
X14722444Y-14576674D02*
X14731968Y-14595722D01*
X14731968Y-14595722D02*
X14731968Y-14614769D01*
X14731968Y-14614769D02*
X14636730Y-14633817D01*
X14808158Y-14690960D02*
X14827206Y-14700484D01*
X14827206Y-14700484D02*
X14865301Y-14700484D01*
X14865301Y-14700484D02*
X14884349Y-14690960D01*
X14884349Y-14690960D02*
X14893872Y-14671912D01*
X14893872Y-14671912D02*
X14893872Y-14662388D01*
X14893872Y-14662388D02*
X14884349Y-14643341D01*
X14884349Y-14643341D02*
X14865301Y-14633817D01*
X14865301Y-14633817D02*
X14836730Y-14633817D01*
X14836730Y-14633817D02*
X14817682Y-14624293D01*
X14817682Y-14624293D02*
X14808158Y-14605246D01*
X14808158Y-14605246D02*
X14808158Y-14595722D01*
X14808158Y-14595722D02*
X14817682Y-14576674D01*
X14817682Y-14576674D02*
X14836730Y-14567150D01*
X14836730Y-14567150D02*
X14865301Y-14567150D01*
X14865301Y-14567150D02*
X14884349Y-14576674D01*
X14960539Y-14776674D02*
X14970063Y-14767150D01*
X14970063Y-14767150D02*
X14989111Y-14738579D01*
X14989111Y-14738579D02*
X14998634Y-14719531D01*
X14998634Y-14719531D02*
X15008158Y-14690960D01*
X15008158Y-14690960D02*
X15017682Y-14643341D01*
X15017682Y-14643341D02*
X15017682Y-14605246D01*
X15017682Y-14605246D02*
X15008158Y-14557627D01*
X15008158Y-14557627D02*
X14998634Y-14529055D01*
X14998634Y-14529055D02*
X14989111Y-14510008D01*
X14989111Y-14510008D02*
X14970063Y-14481436D01*
X14970063Y-14481436D02*
X14960539Y-14471912D01*
D10*
X9945000Y-14823000D02*
X9945000Y-14923000D01*
X9895000Y-14873000D02*
X9995000Y-14873000D01*
D11*
X10360539Y-14964484D02*
X10246253Y-14964484D01*
X10303396Y-14964484D02*
X10303396Y-14764484D01*
X10303396Y-14764484D02*
X10284348Y-14793055D01*
X10284348Y-14793055D02*
X10265301Y-14812103D01*
X10265301Y-14812103D02*
X10246253Y-14821627D01*
X10446253Y-14945436D02*
X10455777Y-14954960D01*
X10455777Y-14954960D02*
X10446253Y-14964484D01*
X10446253Y-14964484D02*
X10436729Y-14954960D01*
X10436729Y-14954960D02*
X10446253Y-14945436D01*
X10446253Y-14945436D02*
X10446253Y-14964484D01*
X10579586Y-14764484D02*
X10598634Y-14764484D01*
X10598634Y-14764484D02*
X10617682Y-14774008D01*
X10617682Y-14774008D02*
X10627205Y-14783531D01*
X10627205Y-14783531D02*
X10636729Y-14802579D01*
X10636729Y-14802579D02*
X10646253Y-14840674D01*
X10646253Y-14840674D02*
X10646253Y-14888293D01*
X10646253Y-14888293D02*
X10636729Y-14926388D01*
X10636729Y-14926388D02*
X10627205Y-14945436D01*
X10627205Y-14945436D02*
X10617682Y-14954960D01*
X10617682Y-14954960D02*
X10598634Y-14964484D01*
X10598634Y-14964484D02*
X10579586Y-14964484D01*
X10579586Y-14964484D02*
X10560539Y-14954960D01*
X10560539Y-14954960D02*
X10551015Y-14945436D01*
X10551015Y-14945436D02*
X10541491Y-14926388D01*
X10541491Y-14926388D02*
X10531967Y-14888293D01*
X10531967Y-14888293D02*
X10531967Y-14840674D01*
X10531967Y-14840674D02*
X10541491Y-14802579D01*
X10541491Y-14802579D02*
X10551015Y-14783531D01*
X10551015Y-14783531D02*
X10560539Y-14774008D01*
X10560539Y-14774008D02*
X10579586Y-14764484D01*
X10770063Y-14764484D02*
X10789110Y-14764484D01*
X10789110Y-14764484D02*
X10808158Y-14774008D01*
X10808158Y-14774008D02*
X10817682Y-14783531D01*
X10817682Y-14783531D02*
X10827205Y-14802579D01*
X10827205Y-14802579D02*
X10836729Y-14840674D01*
X10836729Y-14840674D02*
X10836729Y-14888293D01*
X10836729Y-14888293D02*
X10827205Y-14926388D01*
X10827205Y-14926388D02*
X10817682Y-14945436D01*
X10817682Y-14945436D02*
X10808158Y-14954960D01*
X10808158Y-14954960D02*
X10789110Y-14964484D01*
X10789110Y-14964484D02*
X10770063Y-14964484D01*
X10770063Y-14964484D02*
X10751015Y-14954960D01*
X10751015Y-14954960D02*
X10741491Y-14945436D01*
X10741491Y-14945436D02*
X10731967Y-14926388D01*
X10731967Y-14926388D02*
X10722444Y-14888293D01*
X10722444Y-14888293D02*
X10722444Y-14840674D01*
X10722444Y-14840674D02*
X10731967Y-14802579D01*
X10731967Y-14802579D02*
X10741491Y-14783531D01*
X10741491Y-14783531D02*
X10751015Y-14774008D01*
X10751015Y-14774008D02*
X10770063Y-14764484D01*
X10960539Y-14764484D02*
X10979586Y-14764484D01*
X10979586Y-14764484D02*
X10998634Y-14774008D01*
X10998634Y-14774008D02*
X11008158Y-14783531D01*
X11008158Y-14783531D02*
X11017682Y-14802579D01*
X11017682Y-14802579D02*
X11027205Y-14840674D01*
X11027205Y-14840674D02*
X11027205Y-14888293D01*
X11027205Y-14888293D02*
X11017682Y-14926388D01*
X11017682Y-14926388D02*
X11008158Y-14945436D01*
X11008158Y-14945436D02*
X10998634Y-14954960D01*
X10998634Y-14954960D02*
X10979586Y-14964484D01*
X10979586Y-14964484D02*
X10960539Y-14964484D01*
X10960539Y-14964484D02*
X10941491Y-14954960D01*
X10941491Y-14954960D02*
X10931967Y-14945436D01*
X10931967Y-14945436D02*
X10922444Y-14926388D01*
X10922444Y-14926388D02*
X10912920Y-14888293D01*
X10912920Y-14888293D02*
X10912920Y-14840674D01*
X10912920Y-14840674D02*
X10922444Y-14802579D01*
X10922444Y-14802579D02*
X10931967Y-14783531D01*
X10931967Y-14783531D02*
X10941491Y-14774008D01*
X10941491Y-14774008D02*
X10960539Y-14764484D01*
X11112920Y-14964484D02*
X11112920Y-14831150D01*
X11112920Y-14850198D02*
X11122444Y-14840674D01*
X11122444Y-14840674D02*
X11141491Y-14831150D01*
X11141491Y-14831150D02*
X11170063Y-14831150D01*
X11170063Y-14831150D02*
X11189110Y-14840674D01*
X11189110Y-14840674D02*
X11198634Y-14859722D01*
X11198634Y-14859722D02*
X11198634Y-14964484D01*
X11198634Y-14859722D02*
X11208158Y-14840674D01*
X11208158Y-14840674D02*
X11227205Y-14831150D01*
X11227205Y-14831150D02*
X11255777Y-14831150D01*
X11255777Y-14831150D02*
X11274824Y-14840674D01*
X11274824Y-14840674D02*
X11284348Y-14859722D01*
X11284348Y-14859722D02*
X11284348Y-14964484D01*
X11379586Y-14964484D02*
X11379586Y-14831150D01*
X11379586Y-14850198D02*
X11389110Y-14840674D01*
X11389110Y-14840674D02*
X11408158Y-14831150D01*
X11408158Y-14831150D02*
X11436729Y-14831150D01*
X11436729Y-14831150D02*
X11455777Y-14840674D01*
X11455777Y-14840674D02*
X11465301Y-14859722D01*
X11465301Y-14859722D02*
X11465301Y-14964484D01*
X11465301Y-14859722D02*
X11474824Y-14840674D01*
X11474824Y-14840674D02*
X11493872Y-14831150D01*
X11493872Y-14831150D02*
X11522443Y-14831150D01*
X11522443Y-14831150D02*
X11541491Y-14840674D01*
X11541491Y-14840674D02*
X11551015Y-14859722D01*
X11551015Y-14859722D02*
X11551015Y-14964484D01*
X11941491Y-14754960D02*
X11770063Y-15012103D01*
X12198634Y-14764484D02*
X12217682Y-14764484D01*
X12217682Y-14764484D02*
X12236729Y-14774008D01*
X12236729Y-14774008D02*
X12246253Y-14783531D01*
X12246253Y-14783531D02*
X12255777Y-14802579D01*
X12255777Y-14802579D02*
X12265301Y-14840674D01*
X12265301Y-14840674D02*
X12265301Y-14888293D01*
X12265301Y-14888293D02*
X12255777Y-14926388D01*
X12255777Y-14926388D02*
X12246253Y-14945436D01*
X12246253Y-14945436D02*
X12236729Y-14954960D01*
X12236729Y-14954960D02*
X12217682Y-14964484D01*
X12217682Y-14964484D02*
X12198634Y-14964484D01*
X12198634Y-14964484D02*
X12179586Y-14954960D01*
X12179586Y-14954960D02*
X12170063Y-14945436D01*
X12170063Y-14945436D02*
X12160539Y-14926388D01*
X12160539Y-14926388D02*
X12151015Y-14888293D01*
X12151015Y-14888293D02*
X12151015Y-14840674D01*
X12151015Y-14840674D02*
X12160539Y-14802579D01*
X12160539Y-14802579D02*
X12170063Y-14783531D01*
X12170063Y-14783531D02*
X12179586Y-14774008D01*
X12179586Y-14774008D02*
X12198634Y-14764484D01*
X12351015Y-14945436D02*
X12360539Y-14954960D01*
X12360539Y-14954960D02*
X12351015Y-14964484D01*
X12351015Y-14964484D02*
X12341491Y-14954960D01*
X12341491Y-14954960D02*
X12351015Y-14945436D01*
X12351015Y-14945436D02*
X12351015Y-14964484D01*
X12484348Y-14764484D02*
X12503396Y-14764484D01*
X12503396Y-14764484D02*
X12522444Y-14774008D01*
X12522444Y-14774008D02*
X12531967Y-14783531D01*
X12531967Y-14783531D02*
X12541491Y-14802579D01*
X12541491Y-14802579D02*
X12551015Y-14840674D01*
X12551015Y-14840674D02*
X12551015Y-14888293D01*
X12551015Y-14888293D02*
X12541491Y-14926388D01*
X12541491Y-14926388D02*
X12531967Y-14945436D01*
X12531967Y-14945436D02*
X12522444Y-14954960D01*
X12522444Y-14954960D02*
X12503396Y-14964484D01*
X12503396Y-14964484D02*
X12484348Y-14964484D01*
X12484348Y-14964484D02*
X12465301Y-14954960D01*
X12465301Y-14954960D02*
X12455777Y-14945436D01*
X12455777Y-14945436D02*
X12446253Y-14926388D01*
X12446253Y-14926388D02*
X12436729Y-14888293D01*
X12436729Y-14888293D02*
X12436729Y-14840674D01*
X12436729Y-14840674D02*
X12446253Y-14802579D01*
X12446253Y-14802579D02*
X12455777Y-14783531D01*
X12455777Y-14783531D02*
X12465301Y-14774008D01*
X12465301Y-14774008D02*
X12484348Y-14764484D01*
X12617682Y-14764484D02*
X12741491Y-14764484D01*
X12741491Y-14764484D02*
X12674825Y-14840674D01*
X12674825Y-14840674D02*
X12703396Y-14840674D01*
X12703396Y-14840674D02*
X12722444Y-14850198D01*
X12722444Y-14850198D02*
X12731967Y-14859722D01*
X12731967Y-14859722D02*
X12741491Y-14878769D01*
X12741491Y-14878769D02*
X12741491Y-14926388D01*
X12741491Y-14926388D02*
X12731967Y-14945436D01*
X12731967Y-14945436D02*
X12722444Y-14954960D01*
X12722444Y-14954960D02*
X12703396Y-14964484D01*
X12703396Y-14964484D02*
X12646253Y-14964484D01*
X12646253Y-14964484D02*
X12627206Y-14954960D01*
X12627206Y-14954960D02*
X12617682Y-14945436D01*
X12836729Y-14964484D02*
X12874825Y-14964484D01*
X12874825Y-14964484D02*
X12893872Y-14954960D01*
X12893872Y-14954960D02*
X12903396Y-14945436D01*
X12903396Y-14945436D02*
X12922444Y-14916865D01*
X12922444Y-14916865D02*
X12931967Y-14878769D01*
X12931967Y-14878769D02*
X12931967Y-14802579D01*
X12931967Y-14802579D02*
X12922444Y-14783531D01*
X12922444Y-14783531D02*
X12912920Y-14774008D01*
X12912920Y-14774008D02*
X12893872Y-14764484D01*
X12893872Y-14764484D02*
X12855777Y-14764484D01*
X12855777Y-14764484D02*
X12836729Y-14774008D01*
X12836729Y-14774008D02*
X12827206Y-14783531D01*
X12827206Y-14783531D02*
X12817682Y-14802579D01*
X12817682Y-14802579D02*
X12817682Y-14850198D01*
X12817682Y-14850198D02*
X12827206Y-14869246D01*
X12827206Y-14869246D02*
X12836729Y-14878769D01*
X12836729Y-14878769D02*
X12855777Y-14888293D01*
X12855777Y-14888293D02*
X12893872Y-14888293D01*
X12893872Y-14888293D02*
X12912920Y-14878769D01*
X12912920Y-14878769D02*
X12922444Y-14869246D01*
X12922444Y-14869246D02*
X12931967Y-14850198D01*
X13103396Y-14831150D02*
X13103396Y-14964484D01*
X13055777Y-14754960D02*
X13008158Y-14897817D01*
X13008158Y-14897817D02*
X13131967Y-14897817D01*
X13198634Y-14764484D02*
X13198634Y-14802579D01*
X13274825Y-14764484D02*
X13274825Y-14802579D01*
X13570063Y-15040674D02*
X13560539Y-15031150D01*
X13560539Y-15031150D02*
X13541491Y-15002579D01*
X13541491Y-15002579D02*
X13531968Y-14983531D01*
X13531968Y-14983531D02*
X13522444Y-14954960D01*
X13522444Y-14954960D02*
X13512920Y-14907341D01*
X13512920Y-14907341D02*
X13512920Y-14869246D01*
X13512920Y-14869246D02*
X13522444Y-14821627D01*
X13522444Y-14821627D02*
X13531968Y-14793055D01*
X13531968Y-14793055D02*
X13541491Y-14774008D01*
X13541491Y-14774008D02*
X13560539Y-14745436D01*
X13560539Y-14745436D02*
X13570063Y-14735912D01*
X13627206Y-14764484D02*
X13751015Y-14764484D01*
X13751015Y-14764484D02*
X13684348Y-14840674D01*
X13684348Y-14840674D02*
X13712920Y-14840674D01*
X13712920Y-14840674D02*
X13731968Y-14850198D01*
X13731968Y-14850198D02*
X13741491Y-14859722D01*
X13741491Y-14859722D02*
X13751015Y-14878769D01*
X13751015Y-14878769D02*
X13751015Y-14926388D01*
X13751015Y-14926388D02*
X13741491Y-14945436D01*
X13741491Y-14945436D02*
X13731968Y-14954960D01*
X13731968Y-14954960D02*
X13712920Y-14964484D01*
X13712920Y-14964484D02*
X13655777Y-14964484D01*
X13655777Y-14964484D02*
X13636729Y-14954960D01*
X13636729Y-14954960D02*
X13627206Y-14945436D01*
X13922444Y-14831150D02*
X13922444Y-14964484D01*
X13874825Y-14754960D02*
X13827206Y-14897817D01*
X13827206Y-14897817D02*
X13951015Y-14897817D01*
X14179587Y-14964484D02*
X14179587Y-14764484D01*
X14265301Y-14964484D02*
X14265301Y-14859722D01*
X14265301Y-14859722D02*
X14255777Y-14840674D01*
X14255777Y-14840674D02*
X14236730Y-14831150D01*
X14236730Y-14831150D02*
X14208158Y-14831150D01*
X14208158Y-14831150D02*
X14189110Y-14840674D01*
X14189110Y-14840674D02*
X14179587Y-14850198D01*
X14389110Y-14964484D02*
X14370063Y-14954960D01*
X14370063Y-14954960D02*
X14360539Y-14945436D01*
X14360539Y-14945436D02*
X14351015Y-14926388D01*
X14351015Y-14926388D02*
X14351015Y-14869246D01*
X14351015Y-14869246D02*
X14360539Y-14850198D01*
X14360539Y-14850198D02*
X14370063Y-14840674D01*
X14370063Y-14840674D02*
X14389110Y-14831150D01*
X14389110Y-14831150D02*
X14417682Y-14831150D01*
X14417682Y-14831150D02*
X14436730Y-14840674D01*
X14436730Y-14840674D02*
X14446253Y-14850198D01*
X14446253Y-14850198D02*
X14455777Y-14869246D01*
X14455777Y-14869246D02*
X14455777Y-14926388D01*
X14455777Y-14926388D02*
X14446253Y-14945436D01*
X14446253Y-14945436D02*
X14436730Y-14954960D01*
X14436730Y-14954960D02*
X14417682Y-14964484D01*
X14417682Y-14964484D02*
X14389110Y-14964484D01*
X14570063Y-14964484D02*
X14551015Y-14954960D01*
X14551015Y-14954960D02*
X14541491Y-14935912D01*
X14541491Y-14935912D02*
X14541491Y-14764484D01*
X14722444Y-14954960D02*
X14703396Y-14964484D01*
X14703396Y-14964484D02*
X14665301Y-14964484D01*
X14665301Y-14964484D02*
X14646253Y-14954960D01*
X14646253Y-14954960D02*
X14636730Y-14935912D01*
X14636730Y-14935912D02*
X14636730Y-14859722D01*
X14636730Y-14859722D02*
X14646253Y-14840674D01*
X14646253Y-14840674D02*
X14665301Y-14831150D01*
X14665301Y-14831150D02*
X14703396Y-14831150D01*
X14703396Y-14831150D02*
X14722444Y-14840674D01*
X14722444Y-14840674D02*
X14731968Y-14859722D01*
X14731968Y-14859722D02*
X14731968Y-14878769D01*
X14731968Y-14878769D02*
X14636730Y-14897817D01*
X14808158Y-14954960D02*
X14827206Y-14964484D01*
X14827206Y-14964484D02*
X14865301Y-14964484D01*
X14865301Y-14964484D02*
X14884349Y-14954960D01*
X14884349Y-14954960D02*
X14893872Y-14935912D01*
X14893872Y-14935912D02*
X14893872Y-14926388D01*
X14893872Y-14926388D02*
X14884349Y-14907341D01*
X14884349Y-14907341D02*
X14865301Y-14897817D01*
X14865301Y-14897817D02*
X14836730Y-14897817D01*
X14836730Y-14897817D02*
X14817682Y-14888293D01*
X14817682Y-14888293D02*
X14808158Y-14869246D01*
X14808158Y-14869246D02*
X14808158Y-14859722D01*
X14808158Y-14859722D02*
X14817682Y-14840674D01*
X14817682Y-14840674D02*
X14836730Y-14831150D01*
X14836730Y-14831150D02*
X14865301Y-14831150D01*
X14865301Y-14831150D02*
X14884349Y-14840674D01*
X14960539Y-15040674D02*
X14970063Y-15031150D01*
X14970063Y-15031150D02*
X14989111Y-15002579D01*
X14989111Y-15002579D02*
X14998634Y-14983531D01*
X14998634Y-14983531D02*
X15008158Y-14954960D01*
X15008158Y-14954960D02*
X15017682Y-14907341D01*
X15017682Y-14907341D02*
X15017682Y-14869246D01*
X15017682Y-14869246D02*
X15008158Y-14821627D01*
X15008158Y-14821627D02*
X14998634Y-14793055D01*
X14998634Y-14793055D02*
X14989111Y-14774008D01*
X14989111Y-14774008D02*
X14970063Y-14745436D01*
X14970063Y-14745436D02*
X14960539Y-14735912D01*
D12*
X9979624Y-15174123D02*
X9979624Y-15099876D01*
X9905377Y-15099876D01*
X9905377Y-15174123D01*
X9979624Y-15174123D01*
D11*
X10360539Y-15228484D02*
X10246253Y-15228484D01*
X10303396Y-15228484D02*
X10303396Y-15028484D01*
X10303396Y-15028484D02*
X10284348Y-15057055D01*
X10284348Y-15057055D02*
X10265301Y-15076103D01*
X10265301Y-15076103D02*
X10246253Y-15085627D01*
X10446253Y-15209436D02*
X10455777Y-15218960D01*
X10455777Y-15218960D02*
X10446253Y-15228484D01*
X10446253Y-15228484D02*
X10436729Y-15218960D01*
X10436729Y-15218960D02*
X10446253Y-15209436D01*
X10446253Y-15209436D02*
X10446253Y-15228484D01*
X10579586Y-15028484D02*
X10598634Y-15028484D01*
X10598634Y-15028484D02*
X10617682Y-15038008D01*
X10617682Y-15038008D02*
X10627205Y-15047531D01*
X10627205Y-15047531D02*
X10636729Y-15066579D01*
X10636729Y-15066579D02*
X10646253Y-15104674D01*
X10646253Y-15104674D02*
X10646253Y-15152293D01*
X10646253Y-15152293D02*
X10636729Y-15190388D01*
X10636729Y-15190388D02*
X10627205Y-15209436D01*
X10627205Y-15209436D02*
X10617682Y-15218960D01*
X10617682Y-15218960D02*
X10598634Y-15228484D01*
X10598634Y-15228484D02*
X10579586Y-15228484D01*
X10579586Y-15228484D02*
X10560539Y-15218960D01*
X10560539Y-15218960D02*
X10551015Y-15209436D01*
X10551015Y-15209436D02*
X10541491Y-15190388D01*
X10541491Y-15190388D02*
X10531967Y-15152293D01*
X10531967Y-15152293D02*
X10531967Y-15104674D01*
X10531967Y-15104674D02*
X10541491Y-15066579D01*
X10541491Y-15066579D02*
X10551015Y-15047531D01*
X10551015Y-15047531D02*
X10560539Y-15038008D01*
X10560539Y-15038008D02*
X10579586Y-15028484D01*
X10827205Y-15028484D02*
X10731967Y-15028484D01*
X10731967Y-15028484D02*
X10722444Y-15123722D01*
X10722444Y-15123722D02*
X10731967Y-15114198D01*
X10731967Y-15114198D02*
X10751015Y-15104674D01*
X10751015Y-15104674D02*
X10798634Y-15104674D01*
X10798634Y-15104674D02*
X10817682Y-15114198D01*
X10817682Y-15114198D02*
X10827205Y-15123722D01*
X10827205Y-15123722D02*
X10836729Y-15142769D01*
X10836729Y-15142769D02*
X10836729Y-15190388D01*
X10836729Y-15190388D02*
X10827205Y-15209436D01*
X10827205Y-15209436D02*
X10817682Y-15218960D01*
X10817682Y-15218960D02*
X10798634Y-15228484D01*
X10798634Y-15228484D02*
X10751015Y-15228484D01*
X10751015Y-15228484D02*
X10731967Y-15218960D01*
X10731967Y-15218960D02*
X10722444Y-15209436D01*
X10960539Y-15028484D02*
X10979586Y-15028484D01*
X10979586Y-15028484D02*
X10998634Y-15038008D01*
X10998634Y-15038008D02*
X11008158Y-15047531D01*
X11008158Y-15047531D02*
X11017682Y-15066579D01*
X11017682Y-15066579D02*
X11027205Y-15104674D01*
X11027205Y-15104674D02*
X11027205Y-15152293D01*
X11027205Y-15152293D02*
X11017682Y-15190388D01*
X11017682Y-15190388D02*
X11008158Y-15209436D01*
X11008158Y-15209436D02*
X10998634Y-15218960D01*
X10998634Y-15218960D02*
X10979586Y-15228484D01*
X10979586Y-15228484D02*
X10960539Y-15228484D01*
X10960539Y-15228484D02*
X10941491Y-15218960D01*
X10941491Y-15218960D02*
X10931967Y-15209436D01*
X10931967Y-15209436D02*
X10922444Y-15190388D01*
X10922444Y-15190388D02*
X10912920Y-15152293D01*
X10912920Y-15152293D02*
X10912920Y-15104674D01*
X10912920Y-15104674D02*
X10922444Y-15066579D01*
X10922444Y-15066579D02*
X10931967Y-15047531D01*
X10931967Y-15047531D02*
X10941491Y-15038008D01*
X10941491Y-15038008D02*
X10960539Y-15028484D01*
X11112920Y-15228484D02*
X11112920Y-15095150D01*
X11112920Y-15114198D02*
X11122444Y-15104674D01*
X11122444Y-15104674D02*
X11141491Y-15095150D01*
X11141491Y-15095150D02*
X11170063Y-15095150D01*
X11170063Y-15095150D02*
X11189110Y-15104674D01*
X11189110Y-15104674D02*
X11198634Y-15123722D01*
X11198634Y-15123722D02*
X11198634Y-15228484D01*
X11198634Y-15123722D02*
X11208158Y-15104674D01*
X11208158Y-15104674D02*
X11227205Y-15095150D01*
X11227205Y-15095150D02*
X11255777Y-15095150D01*
X11255777Y-15095150D02*
X11274824Y-15104674D01*
X11274824Y-15104674D02*
X11284348Y-15123722D01*
X11284348Y-15123722D02*
X11284348Y-15228484D01*
X11379586Y-15228484D02*
X11379586Y-15095150D01*
X11379586Y-15114198D02*
X11389110Y-15104674D01*
X11389110Y-15104674D02*
X11408158Y-15095150D01*
X11408158Y-15095150D02*
X11436729Y-15095150D01*
X11436729Y-15095150D02*
X11455777Y-15104674D01*
X11455777Y-15104674D02*
X11465301Y-15123722D01*
X11465301Y-15123722D02*
X11465301Y-15228484D01*
X11465301Y-15123722D02*
X11474824Y-15104674D01*
X11474824Y-15104674D02*
X11493872Y-15095150D01*
X11493872Y-15095150D02*
X11522443Y-15095150D01*
X11522443Y-15095150D02*
X11541491Y-15104674D01*
X11541491Y-15104674D02*
X11551015Y-15123722D01*
X11551015Y-15123722D02*
X11551015Y-15228484D01*
X11941491Y-15018960D02*
X11770063Y-15276103D01*
X12198634Y-15028484D02*
X12217682Y-15028484D01*
X12217682Y-15028484D02*
X12236729Y-15038008D01*
X12236729Y-15038008D02*
X12246253Y-15047531D01*
X12246253Y-15047531D02*
X12255777Y-15066579D01*
X12255777Y-15066579D02*
X12265301Y-15104674D01*
X12265301Y-15104674D02*
X12265301Y-15152293D01*
X12265301Y-15152293D02*
X12255777Y-15190388D01*
X12255777Y-15190388D02*
X12246253Y-15209436D01*
X12246253Y-15209436D02*
X12236729Y-15218960D01*
X12236729Y-15218960D02*
X12217682Y-15228484D01*
X12217682Y-15228484D02*
X12198634Y-15228484D01*
X12198634Y-15228484D02*
X12179586Y-15218960D01*
X12179586Y-15218960D02*
X12170063Y-15209436D01*
X12170063Y-15209436D02*
X12160539Y-15190388D01*
X12160539Y-15190388D02*
X12151015Y-15152293D01*
X12151015Y-15152293D02*
X12151015Y-15104674D01*
X12151015Y-15104674D02*
X12160539Y-15066579D01*
X12160539Y-15066579D02*
X12170063Y-15047531D01*
X12170063Y-15047531D02*
X12179586Y-15038008D01*
X12179586Y-15038008D02*
X12198634Y-15028484D01*
X12351015Y-15209436D02*
X12360539Y-15218960D01*
X12360539Y-15218960D02*
X12351015Y-15228484D01*
X12351015Y-15228484D02*
X12341491Y-15218960D01*
X12341491Y-15218960D02*
X12351015Y-15209436D01*
X12351015Y-15209436D02*
X12351015Y-15228484D01*
X12484348Y-15028484D02*
X12503396Y-15028484D01*
X12503396Y-15028484D02*
X12522444Y-15038008D01*
X12522444Y-15038008D02*
X12531967Y-15047531D01*
X12531967Y-15047531D02*
X12541491Y-15066579D01*
X12541491Y-15066579D02*
X12551015Y-15104674D01*
X12551015Y-15104674D02*
X12551015Y-15152293D01*
X12551015Y-15152293D02*
X12541491Y-15190388D01*
X12541491Y-15190388D02*
X12531967Y-15209436D01*
X12531967Y-15209436D02*
X12522444Y-15218960D01*
X12522444Y-15218960D02*
X12503396Y-15228484D01*
X12503396Y-15228484D02*
X12484348Y-15228484D01*
X12484348Y-15228484D02*
X12465301Y-15218960D01*
X12465301Y-15218960D02*
X12455777Y-15209436D01*
X12455777Y-15209436D02*
X12446253Y-15190388D01*
X12446253Y-15190388D02*
X12436729Y-15152293D01*
X12436729Y-15152293D02*
X12436729Y-15104674D01*
X12436729Y-15104674D02*
X12446253Y-15066579D01*
X12446253Y-15066579D02*
X12455777Y-15047531D01*
X12455777Y-15047531D02*
X12465301Y-15038008D01*
X12465301Y-15038008D02*
X12484348Y-15028484D01*
X12722444Y-15095150D02*
X12722444Y-15228484D01*
X12674825Y-15018960D02*
X12627206Y-15161817D01*
X12627206Y-15161817D02*
X12751015Y-15161817D01*
X12931967Y-15228484D02*
X12817682Y-15228484D01*
X12874825Y-15228484D02*
X12874825Y-15028484D01*
X12874825Y-15028484D02*
X12855777Y-15057055D01*
X12855777Y-15057055D02*
X12836729Y-15076103D01*
X12836729Y-15076103D02*
X12817682Y-15085627D01*
X12998634Y-15028484D02*
X13122444Y-15028484D01*
X13122444Y-15028484D02*
X13055777Y-15104674D01*
X13055777Y-15104674D02*
X13084348Y-15104674D01*
X13084348Y-15104674D02*
X13103396Y-15114198D01*
X13103396Y-15114198D02*
X13112920Y-15123722D01*
X13112920Y-15123722D02*
X13122444Y-15142769D01*
X13122444Y-15142769D02*
X13122444Y-15190388D01*
X13122444Y-15190388D02*
X13112920Y-15209436D01*
X13112920Y-15209436D02*
X13103396Y-15218960D01*
X13103396Y-15218960D02*
X13084348Y-15228484D01*
X13084348Y-15228484D02*
X13027206Y-15228484D01*
X13027206Y-15228484D02*
X13008158Y-15218960D01*
X13008158Y-15218960D02*
X12998634Y-15209436D01*
X13198634Y-15028484D02*
X13198634Y-15066579D01*
X13274825Y-15028484D02*
X13274825Y-15066579D01*
X13570063Y-15304674D02*
X13560539Y-15295150D01*
X13560539Y-15295150D02*
X13541491Y-15266579D01*
X13541491Y-15266579D02*
X13531968Y-15247531D01*
X13531968Y-15247531D02*
X13522444Y-15218960D01*
X13522444Y-15218960D02*
X13512920Y-15171341D01*
X13512920Y-15171341D02*
X13512920Y-15133246D01*
X13512920Y-15133246D02*
X13522444Y-15085627D01*
X13522444Y-15085627D02*
X13531968Y-15057055D01*
X13531968Y-15057055D02*
X13541491Y-15038008D01*
X13541491Y-15038008D02*
X13560539Y-15009436D01*
X13560539Y-15009436D02*
X13570063Y-14999912D01*
X13731968Y-15028484D02*
X13693872Y-15028484D01*
X13693872Y-15028484D02*
X13674825Y-15038008D01*
X13674825Y-15038008D02*
X13665301Y-15047531D01*
X13665301Y-15047531D02*
X13646253Y-15076103D01*
X13646253Y-15076103D02*
X13636729Y-15114198D01*
X13636729Y-15114198D02*
X13636729Y-15190388D01*
X13636729Y-15190388D02*
X13646253Y-15209436D01*
X13646253Y-15209436D02*
X13655777Y-15218960D01*
X13655777Y-15218960D02*
X13674825Y-15228484D01*
X13674825Y-15228484D02*
X13712920Y-15228484D01*
X13712920Y-15228484D02*
X13731968Y-15218960D01*
X13731968Y-15218960D02*
X13741491Y-15209436D01*
X13741491Y-15209436D02*
X13751015Y-15190388D01*
X13751015Y-15190388D02*
X13751015Y-15142769D01*
X13751015Y-15142769D02*
X13741491Y-15123722D01*
X13741491Y-15123722D02*
X13731968Y-15114198D01*
X13731968Y-15114198D02*
X13712920Y-15104674D01*
X13712920Y-15104674D02*
X13674825Y-15104674D01*
X13674825Y-15104674D02*
X13655777Y-15114198D01*
X13655777Y-15114198D02*
X13646253Y-15123722D01*
X13646253Y-15123722D02*
X13636729Y-15142769D01*
X13989110Y-15228484D02*
X13989110Y-15028484D01*
X14074825Y-15228484D02*
X14074825Y-15123722D01*
X14074825Y-15123722D02*
X14065301Y-15104674D01*
X14065301Y-15104674D02*
X14046253Y-15095150D01*
X14046253Y-15095150D02*
X14017682Y-15095150D01*
X14017682Y-15095150D02*
X13998634Y-15104674D01*
X13998634Y-15104674D02*
X13989110Y-15114198D01*
X14198634Y-15228484D02*
X14179587Y-15218960D01*
X14179587Y-15218960D02*
X14170063Y-15209436D01*
X14170063Y-15209436D02*
X14160539Y-15190388D01*
X14160539Y-15190388D02*
X14160539Y-15133246D01*
X14160539Y-15133246D02*
X14170063Y-15114198D01*
X14170063Y-15114198D02*
X14179587Y-15104674D01*
X14179587Y-15104674D02*
X14198634Y-15095150D01*
X14198634Y-15095150D02*
X14227206Y-15095150D01*
X14227206Y-15095150D02*
X14246253Y-15104674D01*
X14246253Y-15104674D02*
X14255777Y-15114198D01*
X14255777Y-15114198D02*
X14265301Y-15133246D01*
X14265301Y-15133246D02*
X14265301Y-15190388D01*
X14265301Y-15190388D02*
X14255777Y-15209436D01*
X14255777Y-15209436D02*
X14246253Y-15218960D01*
X14246253Y-15218960D02*
X14227206Y-15228484D01*
X14227206Y-15228484D02*
X14198634Y-15228484D01*
X14379587Y-15228484D02*
X14360539Y-15218960D01*
X14360539Y-15218960D02*
X14351015Y-15199912D01*
X14351015Y-15199912D02*
X14351015Y-15028484D01*
X14531968Y-15218960D02*
X14512920Y-15228484D01*
X14512920Y-15228484D02*
X14474825Y-15228484D01*
X14474825Y-15228484D02*
X14455777Y-15218960D01*
X14455777Y-15218960D02*
X14446253Y-15199912D01*
X14446253Y-15199912D02*
X14446253Y-15123722D01*
X14446253Y-15123722D02*
X14455777Y-15104674D01*
X14455777Y-15104674D02*
X14474825Y-15095150D01*
X14474825Y-15095150D02*
X14512920Y-15095150D01*
X14512920Y-15095150D02*
X14531968Y-15104674D01*
X14531968Y-15104674D02*
X14541491Y-15123722D01*
X14541491Y-15123722D02*
X14541491Y-15142769D01*
X14541491Y-15142769D02*
X14446253Y-15161817D01*
X14617682Y-15218960D02*
X14636730Y-15228484D01*
X14636730Y-15228484D02*
X14674825Y-15228484D01*
X14674825Y-15228484D02*
X14693872Y-15218960D01*
X14693872Y-15218960D02*
X14703396Y-15199912D01*
X14703396Y-15199912D02*
X14703396Y-15190388D01*
X14703396Y-15190388D02*
X14693872Y-15171341D01*
X14693872Y-15171341D02*
X14674825Y-15161817D01*
X14674825Y-15161817D02*
X14646253Y-15161817D01*
X14646253Y-15161817D02*
X14627206Y-15152293D01*
X14627206Y-15152293D02*
X14617682Y-15133246D01*
X14617682Y-15133246D02*
X14617682Y-15123722D01*
X14617682Y-15123722D02*
X14627206Y-15104674D01*
X14627206Y-15104674D02*
X14646253Y-15095150D01*
X14646253Y-15095150D02*
X14674825Y-15095150D01*
X14674825Y-15095150D02*
X14693872Y-15104674D01*
X14770063Y-15304674D02*
X14779587Y-15295150D01*
X14779587Y-15295150D02*
X14798634Y-15266579D01*
X14798634Y-15266579D02*
X14808158Y-15247531D01*
X14808158Y-15247531D02*
X14817682Y-15218960D01*
X14817682Y-15218960D02*
X14827206Y-15171341D01*
X14827206Y-15171341D02*
X14827206Y-15133246D01*
X14827206Y-15133246D02*
X14817682Y-15085627D01*
X14817682Y-15085627D02*
X14808158Y-15057055D01*
X14808158Y-15057055D02*
X14798634Y-15038008D01*
X14798634Y-15038008D02*
X14779587Y-15009436D01*
X14779587Y-15009436D02*
X14770063Y-14999912D01*
D13*
X9935000Y-15461000D02*
X9995000Y-15401000D01*
X9935000Y-15341000D01*
X9875000Y-15401000D01*
X9935000Y-15461000D01*
D11*
X10360539Y-15492484D02*
X10246253Y-15492484D01*
X10303396Y-15492484D02*
X10303396Y-15292484D01*
X10303396Y-15292484D02*
X10284348Y-15321055D01*
X10284348Y-15321055D02*
X10265301Y-15340103D01*
X10265301Y-15340103D02*
X10246253Y-15349627D01*
X10446253Y-15473436D02*
X10455777Y-15482960D01*
X10455777Y-15482960D02*
X10446253Y-15492484D01*
X10446253Y-15492484D02*
X10436729Y-15482960D01*
X10436729Y-15482960D02*
X10446253Y-15473436D01*
X10446253Y-15473436D02*
X10446253Y-15492484D01*
X10531967Y-15311531D02*
X10541491Y-15302008D01*
X10541491Y-15302008D02*
X10560539Y-15292484D01*
X10560539Y-15292484D02*
X10608158Y-15292484D01*
X10608158Y-15292484D02*
X10627205Y-15302008D01*
X10627205Y-15302008D02*
X10636729Y-15311531D01*
X10636729Y-15311531D02*
X10646253Y-15330579D01*
X10646253Y-15330579D02*
X10646253Y-15349627D01*
X10646253Y-15349627D02*
X10636729Y-15378198D01*
X10636729Y-15378198D02*
X10522444Y-15492484D01*
X10522444Y-15492484D02*
X10646253Y-15492484D01*
X10770063Y-15292484D02*
X10789110Y-15292484D01*
X10789110Y-15292484D02*
X10808158Y-15302008D01*
X10808158Y-15302008D02*
X10817682Y-15311531D01*
X10817682Y-15311531D02*
X10827205Y-15330579D01*
X10827205Y-15330579D02*
X10836729Y-15368674D01*
X10836729Y-15368674D02*
X10836729Y-15416293D01*
X10836729Y-15416293D02*
X10827205Y-15454388D01*
X10827205Y-15454388D02*
X10817682Y-15473436D01*
X10817682Y-15473436D02*
X10808158Y-15482960D01*
X10808158Y-15482960D02*
X10789110Y-15492484D01*
X10789110Y-15492484D02*
X10770063Y-15492484D01*
X10770063Y-15492484D02*
X10751015Y-15482960D01*
X10751015Y-15482960D02*
X10741491Y-15473436D01*
X10741491Y-15473436D02*
X10731967Y-15454388D01*
X10731967Y-15454388D02*
X10722444Y-15416293D01*
X10722444Y-15416293D02*
X10722444Y-15368674D01*
X10722444Y-15368674D02*
X10731967Y-15330579D01*
X10731967Y-15330579D02*
X10741491Y-15311531D01*
X10741491Y-15311531D02*
X10751015Y-15302008D01*
X10751015Y-15302008D02*
X10770063Y-15292484D01*
X10960539Y-15292484D02*
X10979586Y-15292484D01*
X10979586Y-15292484D02*
X10998634Y-15302008D01*
X10998634Y-15302008D02*
X11008158Y-15311531D01*
X11008158Y-15311531D02*
X11017682Y-15330579D01*
X11017682Y-15330579D02*
X11027205Y-15368674D01*
X11027205Y-15368674D02*
X11027205Y-15416293D01*
X11027205Y-15416293D02*
X11017682Y-15454388D01*
X11017682Y-15454388D02*
X11008158Y-15473436D01*
X11008158Y-15473436D02*
X10998634Y-15482960D01*
X10998634Y-15482960D02*
X10979586Y-15492484D01*
X10979586Y-15492484D02*
X10960539Y-15492484D01*
X10960539Y-15492484D02*
X10941491Y-15482960D01*
X10941491Y-15482960D02*
X10931967Y-15473436D01*
X10931967Y-15473436D02*
X10922444Y-15454388D01*
X10922444Y-15454388D02*
X10912920Y-15416293D01*
X10912920Y-15416293D02*
X10912920Y-15368674D01*
X10912920Y-15368674D02*
X10922444Y-15330579D01*
X10922444Y-15330579D02*
X10931967Y-15311531D01*
X10931967Y-15311531D02*
X10941491Y-15302008D01*
X10941491Y-15302008D02*
X10960539Y-15292484D01*
X11112920Y-15492484D02*
X11112920Y-15359150D01*
X11112920Y-15378198D02*
X11122444Y-15368674D01*
X11122444Y-15368674D02*
X11141491Y-15359150D01*
X11141491Y-15359150D02*
X11170063Y-15359150D01*
X11170063Y-15359150D02*
X11189110Y-15368674D01*
X11189110Y-15368674D02*
X11198634Y-15387722D01*
X11198634Y-15387722D02*
X11198634Y-15492484D01*
X11198634Y-15387722D02*
X11208158Y-15368674D01*
X11208158Y-15368674D02*
X11227205Y-15359150D01*
X11227205Y-15359150D02*
X11255777Y-15359150D01*
X11255777Y-15359150D02*
X11274824Y-15368674D01*
X11274824Y-15368674D02*
X11284348Y-15387722D01*
X11284348Y-15387722D02*
X11284348Y-15492484D01*
X11379586Y-15492484D02*
X11379586Y-15359150D01*
X11379586Y-15378198D02*
X11389110Y-15368674D01*
X11389110Y-15368674D02*
X11408158Y-15359150D01*
X11408158Y-15359150D02*
X11436729Y-15359150D01*
X11436729Y-15359150D02*
X11455777Y-15368674D01*
X11455777Y-15368674D02*
X11465301Y-15387722D01*
X11465301Y-15387722D02*
X11465301Y-15492484D01*
X11465301Y-15387722D02*
X11474824Y-15368674D01*
X11474824Y-15368674D02*
X11493872Y-15359150D01*
X11493872Y-15359150D02*
X11522443Y-15359150D01*
X11522443Y-15359150D02*
X11541491Y-15368674D01*
X11541491Y-15368674D02*
X11551015Y-15387722D01*
X11551015Y-15387722D02*
X11551015Y-15492484D01*
X11941491Y-15282960D02*
X11770063Y-15540103D01*
X12198634Y-15292484D02*
X12217682Y-15292484D01*
X12217682Y-15292484D02*
X12236729Y-15302008D01*
X12236729Y-15302008D02*
X12246253Y-15311531D01*
X12246253Y-15311531D02*
X12255777Y-15330579D01*
X12255777Y-15330579D02*
X12265301Y-15368674D01*
X12265301Y-15368674D02*
X12265301Y-15416293D01*
X12265301Y-15416293D02*
X12255777Y-15454388D01*
X12255777Y-15454388D02*
X12246253Y-15473436D01*
X12246253Y-15473436D02*
X12236729Y-15482960D01*
X12236729Y-15482960D02*
X12217682Y-15492484D01*
X12217682Y-15492484D02*
X12198634Y-15492484D01*
X12198634Y-15492484D02*
X12179586Y-15482960D01*
X12179586Y-15482960D02*
X12170063Y-15473436D01*
X12170063Y-15473436D02*
X12160539Y-15454388D01*
X12160539Y-15454388D02*
X12151015Y-15416293D01*
X12151015Y-15416293D02*
X12151015Y-15368674D01*
X12151015Y-15368674D02*
X12160539Y-15330579D01*
X12160539Y-15330579D02*
X12170063Y-15311531D01*
X12170063Y-15311531D02*
X12179586Y-15302008D01*
X12179586Y-15302008D02*
X12198634Y-15292484D01*
X12351015Y-15473436D02*
X12360539Y-15482960D01*
X12360539Y-15482960D02*
X12351015Y-15492484D01*
X12351015Y-15492484D02*
X12341491Y-15482960D01*
X12341491Y-15482960D02*
X12351015Y-15473436D01*
X12351015Y-15473436D02*
X12351015Y-15492484D01*
X12484348Y-15292484D02*
X12503396Y-15292484D01*
X12503396Y-15292484D02*
X12522444Y-15302008D01*
X12522444Y-15302008D02*
X12531967Y-15311531D01*
X12531967Y-15311531D02*
X12541491Y-15330579D01*
X12541491Y-15330579D02*
X12551015Y-15368674D01*
X12551015Y-15368674D02*
X12551015Y-15416293D01*
X12551015Y-15416293D02*
X12541491Y-15454388D01*
X12541491Y-15454388D02*
X12531967Y-15473436D01*
X12531967Y-15473436D02*
X12522444Y-15482960D01*
X12522444Y-15482960D02*
X12503396Y-15492484D01*
X12503396Y-15492484D02*
X12484348Y-15492484D01*
X12484348Y-15492484D02*
X12465301Y-15482960D01*
X12465301Y-15482960D02*
X12455777Y-15473436D01*
X12455777Y-15473436D02*
X12446253Y-15454388D01*
X12446253Y-15454388D02*
X12436729Y-15416293D01*
X12436729Y-15416293D02*
X12436729Y-15368674D01*
X12436729Y-15368674D02*
X12446253Y-15330579D01*
X12446253Y-15330579D02*
X12455777Y-15311531D01*
X12455777Y-15311531D02*
X12465301Y-15302008D01*
X12465301Y-15302008D02*
X12484348Y-15292484D01*
X12722444Y-15359150D02*
X12722444Y-15492484D01*
X12674825Y-15282960D02*
X12627206Y-15425817D01*
X12627206Y-15425817D02*
X12751015Y-15425817D01*
X12808158Y-15292484D02*
X12941491Y-15292484D01*
X12941491Y-15292484D02*
X12855777Y-15492484D01*
X13008158Y-15311531D02*
X13017682Y-15302008D01*
X13017682Y-15302008D02*
X13036729Y-15292484D01*
X13036729Y-15292484D02*
X13084348Y-15292484D01*
X13084348Y-15292484D02*
X13103396Y-15302008D01*
X13103396Y-15302008D02*
X13112920Y-15311531D01*
X13112920Y-15311531D02*
X13122444Y-15330579D01*
X13122444Y-15330579D02*
X13122444Y-15349627D01*
X13122444Y-15349627D02*
X13112920Y-15378198D01*
X13112920Y-15378198D02*
X12998634Y-15492484D01*
X12998634Y-15492484D02*
X13122444Y-15492484D01*
X13198634Y-15292484D02*
X13198634Y-15330579D01*
X13274825Y-15292484D02*
X13274825Y-15330579D01*
X13570063Y-15568674D02*
X13560539Y-15559150D01*
X13560539Y-15559150D02*
X13541491Y-15530579D01*
X13541491Y-15530579D02*
X13531968Y-15511531D01*
X13531968Y-15511531D02*
X13522444Y-15482960D01*
X13522444Y-15482960D02*
X13512920Y-15435341D01*
X13512920Y-15435341D02*
X13512920Y-15397246D01*
X13512920Y-15397246D02*
X13522444Y-15349627D01*
X13522444Y-15349627D02*
X13531968Y-15321055D01*
X13531968Y-15321055D02*
X13541491Y-15302008D01*
X13541491Y-15302008D02*
X13560539Y-15273436D01*
X13560539Y-15273436D02*
X13570063Y-15263912D01*
X13731968Y-15292484D02*
X13693872Y-15292484D01*
X13693872Y-15292484D02*
X13674825Y-15302008D01*
X13674825Y-15302008D02*
X13665301Y-15311531D01*
X13665301Y-15311531D02*
X13646253Y-15340103D01*
X13646253Y-15340103D02*
X13636729Y-15378198D01*
X13636729Y-15378198D02*
X13636729Y-15454388D01*
X13636729Y-15454388D02*
X13646253Y-15473436D01*
X13646253Y-15473436D02*
X13655777Y-15482960D01*
X13655777Y-15482960D02*
X13674825Y-15492484D01*
X13674825Y-15492484D02*
X13712920Y-15492484D01*
X13712920Y-15492484D02*
X13731968Y-15482960D01*
X13731968Y-15482960D02*
X13741491Y-15473436D01*
X13741491Y-15473436D02*
X13751015Y-15454388D01*
X13751015Y-15454388D02*
X13751015Y-15406769D01*
X13751015Y-15406769D02*
X13741491Y-15387722D01*
X13741491Y-15387722D02*
X13731968Y-15378198D01*
X13731968Y-15378198D02*
X13712920Y-15368674D01*
X13712920Y-15368674D02*
X13674825Y-15368674D01*
X13674825Y-15368674D02*
X13655777Y-15378198D01*
X13655777Y-15378198D02*
X13646253Y-15387722D01*
X13646253Y-15387722D02*
X13636729Y-15406769D01*
X13989110Y-15492484D02*
X13989110Y-15292484D01*
X14074825Y-15492484D02*
X14074825Y-15387722D01*
X14074825Y-15387722D02*
X14065301Y-15368674D01*
X14065301Y-15368674D02*
X14046253Y-15359150D01*
X14046253Y-15359150D02*
X14017682Y-15359150D01*
X14017682Y-15359150D02*
X13998634Y-15368674D01*
X13998634Y-15368674D02*
X13989110Y-15378198D01*
X14198634Y-15492484D02*
X14179587Y-15482960D01*
X14179587Y-15482960D02*
X14170063Y-15473436D01*
X14170063Y-15473436D02*
X14160539Y-15454388D01*
X14160539Y-15454388D02*
X14160539Y-15397246D01*
X14160539Y-15397246D02*
X14170063Y-15378198D01*
X14170063Y-15378198D02*
X14179587Y-15368674D01*
X14179587Y-15368674D02*
X14198634Y-15359150D01*
X14198634Y-15359150D02*
X14227206Y-15359150D01*
X14227206Y-15359150D02*
X14246253Y-15368674D01*
X14246253Y-15368674D02*
X14255777Y-15378198D01*
X14255777Y-15378198D02*
X14265301Y-15397246D01*
X14265301Y-15397246D02*
X14265301Y-15454388D01*
X14265301Y-15454388D02*
X14255777Y-15473436D01*
X14255777Y-15473436D02*
X14246253Y-15482960D01*
X14246253Y-15482960D02*
X14227206Y-15492484D01*
X14227206Y-15492484D02*
X14198634Y-15492484D01*
X14379587Y-15492484D02*
X14360539Y-15482960D01*
X14360539Y-15482960D02*
X14351015Y-15463912D01*
X14351015Y-15463912D02*
X14351015Y-15292484D01*
X14531968Y-15482960D02*
X14512920Y-15492484D01*
X14512920Y-15492484D02*
X14474825Y-15492484D01*
X14474825Y-15492484D02*
X14455777Y-15482960D01*
X14455777Y-15482960D02*
X14446253Y-15463912D01*
X14446253Y-15463912D02*
X14446253Y-15387722D01*
X14446253Y-15387722D02*
X14455777Y-15368674D01*
X14455777Y-15368674D02*
X14474825Y-15359150D01*
X14474825Y-15359150D02*
X14512920Y-15359150D01*
X14512920Y-15359150D02*
X14531968Y-15368674D01*
X14531968Y-15368674D02*
X14541491Y-15387722D01*
X14541491Y-15387722D02*
X14541491Y-15406769D01*
X14541491Y-15406769D02*
X14446253Y-15425817D01*
X14617682Y-15482960D02*
X14636730Y-15492484D01*
X14636730Y-15492484D02*
X14674825Y-15492484D01*
X14674825Y-15492484D02*
X14693872Y-15482960D01*
X14693872Y-15482960D02*
X14703396Y-15463912D01*
X14703396Y-15463912D02*
X14703396Y-15454388D01*
X14703396Y-15454388D02*
X14693872Y-15435341D01*
X14693872Y-15435341D02*
X14674825Y-15425817D01*
X14674825Y-15425817D02*
X14646253Y-15425817D01*
X14646253Y-15425817D02*
X14627206Y-15416293D01*
X14627206Y-15416293D02*
X14617682Y-15397246D01*
X14617682Y-15397246D02*
X14617682Y-15387722D01*
X14617682Y-15387722D02*
X14627206Y-15368674D01*
X14627206Y-15368674D02*
X14646253Y-15359150D01*
X14646253Y-15359150D02*
X14674825Y-15359150D01*
X14674825Y-15359150D02*
X14693872Y-15368674D01*
X14770063Y-15568674D02*
X14779587Y-15559150D01*
X14779587Y-15559150D02*
X14798634Y-15530579D01*
X14798634Y-15530579D02*
X14808158Y-15511531D01*
X14808158Y-15511531D02*
X14817682Y-15482960D01*
X14817682Y-15482960D02*
X14827206Y-15435341D01*
X14827206Y-15435341D02*
X14827206Y-15397246D01*
X14827206Y-15397246D02*
X14817682Y-15349627D01*
X14817682Y-15349627D02*
X14808158Y-15321055D01*
X14808158Y-15321055D02*
X14798634Y-15302008D01*
X14798634Y-15302008D02*
X14779587Y-15273436D01*
X14779587Y-15273436D02*
X14770063Y-15263912D01*
D14*
X9870000Y-15602500D02*
X9995000Y-15727500D01*
X9995000Y-15602500D02*
X9870000Y-15727500D01*
X9995000Y-15665000D02*
G75*
G03*
X9995000Y-15665000I-62500J0D01*
G01*
D11*
X10360539Y-15756484D02*
X10246253Y-15756484D01*
X10303396Y-15756484D02*
X10303396Y-15556484D01*
X10303396Y-15556484D02*
X10284348Y-15585055D01*
X10284348Y-15585055D02*
X10265301Y-15604103D01*
X10265301Y-15604103D02*
X10246253Y-15613627D01*
X10446253Y-15737436D02*
X10455777Y-15746960D01*
X10455777Y-15746960D02*
X10446253Y-15756484D01*
X10446253Y-15756484D02*
X10436729Y-15746960D01*
X10436729Y-15746960D02*
X10446253Y-15737436D01*
X10446253Y-15737436D02*
X10446253Y-15756484D01*
X10531967Y-15575531D02*
X10541491Y-15566008D01*
X10541491Y-15566008D02*
X10560539Y-15556484D01*
X10560539Y-15556484D02*
X10608158Y-15556484D01*
X10608158Y-15556484D02*
X10627205Y-15566008D01*
X10627205Y-15566008D02*
X10636729Y-15575531D01*
X10636729Y-15575531D02*
X10646253Y-15594579D01*
X10646253Y-15594579D02*
X10646253Y-15613627D01*
X10646253Y-15613627D02*
X10636729Y-15642198D01*
X10636729Y-15642198D02*
X10522444Y-15756484D01*
X10522444Y-15756484D02*
X10646253Y-15756484D01*
X10827205Y-15556484D02*
X10731967Y-15556484D01*
X10731967Y-15556484D02*
X10722444Y-15651722D01*
X10722444Y-15651722D02*
X10731967Y-15642198D01*
X10731967Y-15642198D02*
X10751015Y-15632674D01*
X10751015Y-15632674D02*
X10798634Y-15632674D01*
X10798634Y-15632674D02*
X10817682Y-15642198D01*
X10817682Y-15642198D02*
X10827205Y-15651722D01*
X10827205Y-15651722D02*
X10836729Y-15670769D01*
X10836729Y-15670769D02*
X10836729Y-15718388D01*
X10836729Y-15718388D02*
X10827205Y-15737436D01*
X10827205Y-15737436D02*
X10817682Y-15746960D01*
X10817682Y-15746960D02*
X10798634Y-15756484D01*
X10798634Y-15756484D02*
X10751015Y-15756484D01*
X10751015Y-15756484D02*
X10731967Y-15746960D01*
X10731967Y-15746960D02*
X10722444Y-15737436D01*
X10960539Y-15556484D02*
X10979586Y-15556484D01*
X10979586Y-15556484D02*
X10998634Y-15566008D01*
X10998634Y-15566008D02*
X11008158Y-15575531D01*
X11008158Y-15575531D02*
X11017682Y-15594579D01*
X11017682Y-15594579D02*
X11027205Y-15632674D01*
X11027205Y-15632674D02*
X11027205Y-15680293D01*
X11027205Y-15680293D02*
X11017682Y-15718388D01*
X11017682Y-15718388D02*
X11008158Y-15737436D01*
X11008158Y-15737436D02*
X10998634Y-15746960D01*
X10998634Y-15746960D02*
X10979586Y-15756484D01*
X10979586Y-15756484D02*
X10960539Y-15756484D01*
X10960539Y-15756484D02*
X10941491Y-15746960D01*
X10941491Y-15746960D02*
X10931967Y-15737436D01*
X10931967Y-15737436D02*
X10922444Y-15718388D01*
X10922444Y-15718388D02*
X10912920Y-15680293D01*
X10912920Y-15680293D02*
X10912920Y-15632674D01*
X10912920Y-15632674D02*
X10922444Y-15594579D01*
X10922444Y-15594579D02*
X10931967Y-15575531D01*
X10931967Y-15575531D02*
X10941491Y-15566008D01*
X10941491Y-15566008D02*
X10960539Y-15556484D01*
X11112920Y-15756484D02*
X11112920Y-15623150D01*
X11112920Y-15642198D02*
X11122444Y-15632674D01*
X11122444Y-15632674D02*
X11141491Y-15623150D01*
X11141491Y-15623150D02*
X11170063Y-15623150D01*
X11170063Y-15623150D02*
X11189110Y-15632674D01*
X11189110Y-15632674D02*
X11198634Y-15651722D01*
X11198634Y-15651722D02*
X11198634Y-15756484D01*
X11198634Y-15651722D02*
X11208158Y-15632674D01*
X11208158Y-15632674D02*
X11227205Y-15623150D01*
X11227205Y-15623150D02*
X11255777Y-15623150D01*
X11255777Y-15623150D02*
X11274824Y-15632674D01*
X11274824Y-15632674D02*
X11284348Y-15651722D01*
X11284348Y-15651722D02*
X11284348Y-15756484D01*
X11379586Y-15756484D02*
X11379586Y-15623150D01*
X11379586Y-15642198D02*
X11389110Y-15632674D01*
X11389110Y-15632674D02*
X11408158Y-15623150D01*
X11408158Y-15623150D02*
X11436729Y-15623150D01*
X11436729Y-15623150D02*
X11455777Y-15632674D01*
X11455777Y-15632674D02*
X11465301Y-15651722D01*
X11465301Y-15651722D02*
X11465301Y-15756484D01*
X11465301Y-15651722D02*
X11474824Y-15632674D01*
X11474824Y-15632674D02*
X11493872Y-15623150D01*
X11493872Y-15623150D02*
X11522443Y-15623150D01*
X11522443Y-15623150D02*
X11541491Y-15632674D01*
X11541491Y-15632674D02*
X11551015Y-15651722D01*
X11551015Y-15651722D02*
X11551015Y-15756484D01*
X11941491Y-15546960D02*
X11770063Y-15804103D01*
X12198634Y-15556484D02*
X12217682Y-15556484D01*
X12217682Y-15556484D02*
X12236729Y-15566008D01*
X12236729Y-15566008D02*
X12246253Y-15575531D01*
X12246253Y-15575531D02*
X12255777Y-15594579D01*
X12255777Y-15594579D02*
X12265301Y-15632674D01*
X12265301Y-15632674D02*
X12265301Y-15680293D01*
X12265301Y-15680293D02*
X12255777Y-15718388D01*
X12255777Y-15718388D02*
X12246253Y-15737436D01*
X12246253Y-15737436D02*
X12236729Y-15746960D01*
X12236729Y-15746960D02*
X12217682Y-15756484D01*
X12217682Y-15756484D02*
X12198634Y-15756484D01*
X12198634Y-15756484D02*
X12179586Y-15746960D01*
X12179586Y-15746960D02*
X12170063Y-15737436D01*
X12170063Y-15737436D02*
X12160539Y-15718388D01*
X12160539Y-15718388D02*
X12151015Y-15680293D01*
X12151015Y-15680293D02*
X12151015Y-15632674D01*
X12151015Y-15632674D02*
X12160539Y-15594579D01*
X12160539Y-15594579D02*
X12170063Y-15575531D01*
X12170063Y-15575531D02*
X12179586Y-15566008D01*
X12179586Y-15566008D02*
X12198634Y-15556484D01*
X12351015Y-15737436D02*
X12360539Y-15746960D01*
X12360539Y-15746960D02*
X12351015Y-15756484D01*
X12351015Y-15756484D02*
X12341491Y-15746960D01*
X12341491Y-15746960D02*
X12351015Y-15737436D01*
X12351015Y-15737436D02*
X12351015Y-15756484D01*
X12484348Y-15556484D02*
X12503396Y-15556484D01*
X12503396Y-15556484D02*
X12522444Y-15566008D01*
X12522444Y-15566008D02*
X12531967Y-15575531D01*
X12531967Y-15575531D02*
X12541491Y-15594579D01*
X12541491Y-15594579D02*
X12551015Y-15632674D01*
X12551015Y-15632674D02*
X12551015Y-15680293D01*
X12551015Y-15680293D02*
X12541491Y-15718388D01*
X12541491Y-15718388D02*
X12531967Y-15737436D01*
X12531967Y-15737436D02*
X12522444Y-15746960D01*
X12522444Y-15746960D02*
X12503396Y-15756484D01*
X12503396Y-15756484D02*
X12484348Y-15756484D01*
X12484348Y-15756484D02*
X12465301Y-15746960D01*
X12465301Y-15746960D02*
X12455777Y-15737436D01*
X12455777Y-15737436D02*
X12446253Y-15718388D01*
X12446253Y-15718388D02*
X12436729Y-15680293D01*
X12436729Y-15680293D02*
X12436729Y-15632674D01*
X12436729Y-15632674D02*
X12446253Y-15594579D01*
X12446253Y-15594579D02*
X12455777Y-15575531D01*
X12455777Y-15575531D02*
X12465301Y-15566008D01*
X12465301Y-15566008D02*
X12484348Y-15556484D01*
X12722444Y-15623150D02*
X12722444Y-15756484D01*
X12674825Y-15546960D02*
X12627206Y-15689817D01*
X12627206Y-15689817D02*
X12751015Y-15689817D01*
X12836729Y-15756484D02*
X12874825Y-15756484D01*
X12874825Y-15756484D02*
X12893872Y-15746960D01*
X12893872Y-15746960D02*
X12903396Y-15737436D01*
X12903396Y-15737436D02*
X12922444Y-15708865D01*
X12922444Y-15708865D02*
X12931967Y-15670769D01*
X12931967Y-15670769D02*
X12931967Y-15594579D01*
X12931967Y-15594579D02*
X12922444Y-15575531D01*
X12922444Y-15575531D02*
X12912920Y-15566008D01*
X12912920Y-15566008D02*
X12893872Y-15556484D01*
X12893872Y-15556484D02*
X12855777Y-15556484D01*
X12855777Y-15556484D02*
X12836729Y-15566008D01*
X12836729Y-15566008D02*
X12827206Y-15575531D01*
X12827206Y-15575531D02*
X12817682Y-15594579D01*
X12817682Y-15594579D02*
X12817682Y-15642198D01*
X12817682Y-15642198D02*
X12827206Y-15661246D01*
X12827206Y-15661246D02*
X12836729Y-15670769D01*
X12836729Y-15670769D02*
X12855777Y-15680293D01*
X12855777Y-15680293D02*
X12893872Y-15680293D01*
X12893872Y-15680293D02*
X12912920Y-15670769D01*
X12912920Y-15670769D02*
X12922444Y-15661246D01*
X12922444Y-15661246D02*
X12931967Y-15642198D01*
X13008158Y-15575531D02*
X13017682Y-15566008D01*
X13017682Y-15566008D02*
X13036729Y-15556484D01*
X13036729Y-15556484D02*
X13084348Y-15556484D01*
X13084348Y-15556484D02*
X13103396Y-15566008D01*
X13103396Y-15566008D02*
X13112920Y-15575531D01*
X13112920Y-15575531D02*
X13122444Y-15594579D01*
X13122444Y-15594579D02*
X13122444Y-15613627D01*
X13122444Y-15613627D02*
X13112920Y-15642198D01*
X13112920Y-15642198D02*
X12998634Y-15756484D01*
X12998634Y-15756484D02*
X13122444Y-15756484D01*
X13198634Y-15556484D02*
X13198634Y-15594579D01*
X13274825Y-15556484D02*
X13274825Y-15594579D01*
X13570063Y-15832674D02*
X13560539Y-15823150D01*
X13560539Y-15823150D02*
X13541491Y-15794579D01*
X13541491Y-15794579D02*
X13531968Y-15775531D01*
X13531968Y-15775531D02*
X13522444Y-15746960D01*
X13522444Y-15746960D02*
X13512920Y-15699341D01*
X13512920Y-15699341D02*
X13512920Y-15661246D01*
X13512920Y-15661246D02*
X13522444Y-15613627D01*
X13522444Y-15613627D02*
X13531968Y-15585055D01*
X13531968Y-15585055D02*
X13541491Y-15566008D01*
X13541491Y-15566008D02*
X13560539Y-15537436D01*
X13560539Y-15537436D02*
X13570063Y-15527912D01*
X13731968Y-15623150D02*
X13731968Y-15756484D01*
X13684348Y-15546960D02*
X13636729Y-15689817D01*
X13636729Y-15689817D02*
X13760539Y-15689817D01*
X13989110Y-15756484D02*
X13989110Y-15556484D01*
X14074825Y-15756484D02*
X14074825Y-15651722D01*
X14074825Y-15651722D02*
X14065301Y-15632674D01*
X14065301Y-15632674D02*
X14046253Y-15623150D01*
X14046253Y-15623150D02*
X14017682Y-15623150D01*
X14017682Y-15623150D02*
X13998634Y-15632674D01*
X13998634Y-15632674D02*
X13989110Y-15642198D01*
X14198634Y-15756484D02*
X14179587Y-15746960D01*
X14179587Y-15746960D02*
X14170063Y-15737436D01*
X14170063Y-15737436D02*
X14160539Y-15718388D01*
X14160539Y-15718388D02*
X14160539Y-15661246D01*
X14160539Y-15661246D02*
X14170063Y-15642198D01*
X14170063Y-15642198D02*
X14179587Y-15632674D01*
X14179587Y-15632674D02*
X14198634Y-15623150D01*
X14198634Y-15623150D02*
X14227206Y-15623150D01*
X14227206Y-15623150D02*
X14246253Y-15632674D01*
X14246253Y-15632674D02*
X14255777Y-15642198D01*
X14255777Y-15642198D02*
X14265301Y-15661246D01*
X14265301Y-15661246D02*
X14265301Y-15718388D01*
X14265301Y-15718388D02*
X14255777Y-15737436D01*
X14255777Y-15737436D02*
X14246253Y-15746960D01*
X14246253Y-15746960D02*
X14227206Y-15756484D01*
X14227206Y-15756484D02*
X14198634Y-15756484D01*
X14379587Y-15756484D02*
X14360539Y-15746960D01*
X14360539Y-15746960D02*
X14351015Y-15727912D01*
X14351015Y-15727912D02*
X14351015Y-15556484D01*
X14531968Y-15746960D02*
X14512920Y-15756484D01*
X14512920Y-15756484D02*
X14474825Y-15756484D01*
X14474825Y-15756484D02*
X14455777Y-15746960D01*
X14455777Y-15746960D02*
X14446253Y-15727912D01*
X14446253Y-15727912D02*
X14446253Y-15651722D01*
X14446253Y-15651722D02*
X14455777Y-15632674D01*
X14455777Y-15632674D02*
X14474825Y-15623150D01*
X14474825Y-15623150D02*
X14512920Y-15623150D01*
X14512920Y-15623150D02*
X14531968Y-15632674D01*
X14531968Y-15632674D02*
X14541491Y-15651722D01*
X14541491Y-15651722D02*
X14541491Y-15670769D01*
X14541491Y-15670769D02*
X14446253Y-15689817D01*
X14617682Y-15746960D02*
X14636730Y-15756484D01*
X14636730Y-15756484D02*
X14674825Y-15756484D01*
X14674825Y-15756484D02*
X14693872Y-15746960D01*
X14693872Y-15746960D02*
X14703396Y-15727912D01*
X14703396Y-15727912D02*
X14703396Y-15718388D01*
X14703396Y-15718388D02*
X14693872Y-15699341D01*
X14693872Y-15699341D02*
X14674825Y-15689817D01*
X14674825Y-15689817D02*
X14646253Y-15689817D01*
X14646253Y-15689817D02*
X14627206Y-15680293D01*
X14627206Y-15680293D02*
X14617682Y-15661246D01*
X14617682Y-15661246D02*
X14617682Y-15651722D01*
X14617682Y-15651722D02*
X14627206Y-15632674D01*
X14627206Y-15632674D02*
X14646253Y-15623150D01*
X14646253Y-15623150D02*
X14674825Y-15623150D01*
X14674825Y-15623150D02*
X14693872Y-15632674D01*
X14770063Y-15832674D02*
X14779587Y-15823150D01*
X14779587Y-15823150D02*
X14798634Y-15794579D01*
X14798634Y-15794579D02*
X14808158Y-15775531D01*
X14808158Y-15775531D02*
X14817682Y-15746960D01*
X14817682Y-15746960D02*
X14827206Y-15699341D01*
X14827206Y-15699341D02*
X14827206Y-15661246D01*
X14827206Y-15661246D02*
X14817682Y-15613627D01*
X14817682Y-15613627D02*
X14808158Y-15585055D01*
X14808158Y-15585055D02*
X14798634Y-15566008D01*
X14798634Y-15566008D02*
X14779587Y-15537436D01*
X14779587Y-15537436D02*
X14770063Y-15527912D01*
X9795000Y-15829000D02*
X9995000Y-16029000D01*
X9995000Y-15829000D02*
X9795000Y-16029000D01*
X9895000Y-15829000D02*
X9895000Y-16029000D01*
X9795000Y-15929000D02*
X9995000Y-15929000D01*
X10246253Y-15839531D02*
X10255777Y-15830008D01*
X10255777Y-15830008D02*
X10274824Y-15820484D01*
X10274824Y-15820484D02*
X10322444Y-15820484D01*
X10322444Y-15820484D02*
X10341491Y-15830008D01*
X10341491Y-15830008D02*
X10351015Y-15839531D01*
X10351015Y-15839531D02*
X10360539Y-15858579D01*
X10360539Y-15858579D02*
X10360539Y-15877627D01*
X10360539Y-15877627D02*
X10351015Y-15906198D01*
X10351015Y-15906198D02*
X10236729Y-16020484D01*
X10236729Y-16020484D02*
X10360539Y-16020484D01*
X10446253Y-16001436D02*
X10455777Y-16010960D01*
X10455777Y-16010960D02*
X10446253Y-16020484D01*
X10446253Y-16020484D02*
X10436729Y-16010960D01*
X10436729Y-16010960D02*
X10446253Y-16001436D01*
X10446253Y-16001436D02*
X10446253Y-16020484D01*
X10636729Y-15820484D02*
X10541491Y-15820484D01*
X10541491Y-15820484D02*
X10531967Y-15915722D01*
X10531967Y-15915722D02*
X10541491Y-15906198D01*
X10541491Y-15906198D02*
X10560539Y-15896674D01*
X10560539Y-15896674D02*
X10608158Y-15896674D01*
X10608158Y-15896674D02*
X10627205Y-15906198D01*
X10627205Y-15906198D02*
X10636729Y-15915722D01*
X10636729Y-15915722D02*
X10646253Y-15934769D01*
X10646253Y-15934769D02*
X10646253Y-15982388D01*
X10646253Y-15982388D02*
X10636729Y-16001436D01*
X10636729Y-16001436D02*
X10627205Y-16010960D01*
X10627205Y-16010960D02*
X10608158Y-16020484D01*
X10608158Y-16020484D02*
X10560539Y-16020484D01*
X10560539Y-16020484D02*
X10541491Y-16010960D01*
X10541491Y-16010960D02*
X10531967Y-16001436D01*
X10770063Y-15820484D02*
X10789110Y-15820484D01*
X10789110Y-15820484D02*
X10808158Y-15830008D01*
X10808158Y-15830008D02*
X10817682Y-15839531D01*
X10817682Y-15839531D02*
X10827205Y-15858579D01*
X10827205Y-15858579D02*
X10836729Y-15896674D01*
X10836729Y-15896674D02*
X10836729Y-15944293D01*
X10836729Y-15944293D02*
X10827205Y-15982388D01*
X10827205Y-15982388D02*
X10817682Y-16001436D01*
X10817682Y-16001436D02*
X10808158Y-16010960D01*
X10808158Y-16010960D02*
X10789110Y-16020484D01*
X10789110Y-16020484D02*
X10770063Y-16020484D01*
X10770063Y-16020484D02*
X10751015Y-16010960D01*
X10751015Y-16010960D02*
X10741491Y-16001436D01*
X10741491Y-16001436D02*
X10731967Y-15982388D01*
X10731967Y-15982388D02*
X10722444Y-15944293D01*
X10722444Y-15944293D02*
X10722444Y-15896674D01*
X10722444Y-15896674D02*
X10731967Y-15858579D01*
X10731967Y-15858579D02*
X10741491Y-15839531D01*
X10741491Y-15839531D02*
X10751015Y-15830008D01*
X10751015Y-15830008D02*
X10770063Y-15820484D01*
X10960539Y-15820484D02*
X10979586Y-15820484D01*
X10979586Y-15820484D02*
X10998634Y-15830008D01*
X10998634Y-15830008D02*
X11008158Y-15839531D01*
X11008158Y-15839531D02*
X11017682Y-15858579D01*
X11017682Y-15858579D02*
X11027205Y-15896674D01*
X11027205Y-15896674D02*
X11027205Y-15944293D01*
X11027205Y-15944293D02*
X11017682Y-15982388D01*
X11017682Y-15982388D02*
X11008158Y-16001436D01*
X11008158Y-16001436D02*
X10998634Y-16010960D01*
X10998634Y-16010960D02*
X10979586Y-16020484D01*
X10979586Y-16020484D02*
X10960539Y-16020484D01*
X10960539Y-16020484D02*
X10941491Y-16010960D01*
X10941491Y-16010960D02*
X10931967Y-16001436D01*
X10931967Y-16001436D02*
X10922444Y-15982388D01*
X10922444Y-15982388D02*
X10912920Y-15944293D01*
X10912920Y-15944293D02*
X10912920Y-15896674D01*
X10912920Y-15896674D02*
X10922444Y-15858579D01*
X10922444Y-15858579D02*
X10931967Y-15839531D01*
X10931967Y-15839531D02*
X10941491Y-15830008D01*
X10941491Y-15830008D02*
X10960539Y-15820484D01*
X11112920Y-16020484D02*
X11112920Y-15887150D01*
X11112920Y-15906198D02*
X11122444Y-15896674D01*
X11122444Y-15896674D02*
X11141491Y-15887150D01*
X11141491Y-15887150D02*
X11170063Y-15887150D01*
X11170063Y-15887150D02*
X11189110Y-15896674D01*
X11189110Y-15896674D02*
X11198634Y-15915722D01*
X11198634Y-15915722D02*
X11198634Y-16020484D01*
X11198634Y-15915722D02*
X11208158Y-15896674D01*
X11208158Y-15896674D02*
X11227205Y-15887150D01*
X11227205Y-15887150D02*
X11255777Y-15887150D01*
X11255777Y-15887150D02*
X11274824Y-15896674D01*
X11274824Y-15896674D02*
X11284348Y-15915722D01*
X11284348Y-15915722D02*
X11284348Y-16020484D01*
X11379586Y-16020484D02*
X11379586Y-15887150D01*
X11379586Y-15906198D02*
X11389110Y-15896674D01*
X11389110Y-15896674D02*
X11408158Y-15887150D01*
X11408158Y-15887150D02*
X11436729Y-15887150D01*
X11436729Y-15887150D02*
X11455777Y-15896674D01*
X11455777Y-15896674D02*
X11465301Y-15915722D01*
X11465301Y-15915722D02*
X11465301Y-16020484D01*
X11465301Y-15915722D02*
X11474824Y-15896674D01*
X11474824Y-15896674D02*
X11493872Y-15887150D01*
X11493872Y-15887150D02*
X11522443Y-15887150D01*
X11522443Y-15887150D02*
X11541491Y-15896674D01*
X11541491Y-15896674D02*
X11551015Y-15915722D01*
X11551015Y-15915722D02*
X11551015Y-16020484D01*
X11941491Y-15810960D02*
X11770063Y-16068103D01*
X12198634Y-15820484D02*
X12217682Y-15820484D01*
X12217682Y-15820484D02*
X12236729Y-15830008D01*
X12236729Y-15830008D02*
X12246253Y-15839531D01*
X12246253Y-15839531D02*
X12255777Y-15858579D01*
X12255777Y-15858579D02*
X12265301Y-15896674D01*
X12265301Y-15896674D02*
X12265301Y-15944293D01*
X12265301Y-15944293D02*
X12255777Y-15982388D01*
X12255777Y-15982388D02*
X12246253Y-16001436D01*
X12246253Y-16001436D02*
X12236729Y-16010960D01*
X12236729Y-16010960D02*
X12217682Y-16020484D01*
X12217682Y-16020484D02*
X12198634Y-16020484D01*
X12198634Y-16020484D02*
X12179586Y-16010960D01*
X12179586Y-16010960D02*
X12170063Y-16001436D01*
X12170063Y-16001436D02*
X12160539Y-15982388D01*
X12160539Y-15982388D02*
X12151015Y-15944293D01*
X12151015Y-15944293D02*
X12151015Y-15896674D01*
X12151015Y-15896674D02*
X12160539Y-15858579D01*
X12160539Y-15858579D02*
X12170063Y-15839531D01*
X12170063Y-15839531D02*
X12179586Y-15830008D01*
X12179586Y-15830008D02*
X12198634Y-15820484D01*
X12351015Y-16001436D02*
X12360539Y-16010960D01*
X12360539Y-16010960D02*
X12351015Y-16020484D01*
X12351015Y-16020484D02*
X12341491Y-16010960D01*
X12341491Y-16010960D02*
X12351015Y-16001436D01*
X12351015Y-16001436D02*
X12351015Y-16020484D01*
X12484348Y-15820484D02*
X12503396Y-15820484D01*
X12503396Y-15820484D02*
X12522444Y-15830008D01*
X12522444Y-15830008D02*
X12531967Y-15839531D01*
X12531967Y-15839531D02*
X12541491Y-15858579D01*
X12541491Y-15858579D02*
X12551015Y-15896674D01*
X12551015Y-15896674D02*
X12551015Y-15944293D01*
X12551015Y-15944293D02*
X12541491Y-15982388D01*
X12541491Y-15982388D02*
X12531967Y-16001436D01*
X12531967Y-16001436D02*
X12522444Y-16010960D01*
X12522444Y-16010960D02*
X12503396Y-16020484D01*
X12503396Y-16020484D02*
X12484348Y-16020484D01*
X12484348Y-16020484D02*
X12465301Y-16010960D01*
X12465301Y-16010960D02*
X12455777Y-16001436D01*
X12455777Y-16001436D02*
X12446253Y-15982388D01*
X12446253Y-15982388D02*
X12436729Y-15944293D01*
X12436729Y-15944293D02*
X12436729Y-15896674D01*
X12436729Y-15896674D02*
X12446253Y-15858579D01*
X12446253Y-15858579D02*
X12455777Y-15839531D01*
X12455777Y-15839531D02*
X12465301Y-15830008D01*
X12465301Y-15830008D02*
X12484348Y-15820484D01*
X12646253Y-16020484D02*
X12684348Y-16020484D01*
X12684348Y-16020484D02*
X12703396Y-16010960D01*
X12703396Y-16010960D02*
X12712920Y-16001436D01*
X12712920Y-16001436D02*
X12731967Y-15972865D01*
X12731967Y-15972865D02*
X12741491Y-15934769D01*
X12741491Y-15934769D02*
X12741491Y-15858579D01*
X12741491Y-15858579D02*
X12731967Y-15839531D01*
X12731967Y-15839531D02*
X12722444Y-15830008D01*
X12722444Y-15830008D02*
X12703396Y-15820484D01*
X12703396Y-15820484D02*
X12665301Y-15820484D01*
X12665301Y-15820484D02*
X12646253Y-15830008D01*
X12646253Y-15830008D02*
X12636729Y-15839531D01*
X12636729Y-15839531D02*
X12627206Y-15858579D01*
X12627206Y-15858579D02*
X12627206Y-15906198D01*
X12627206Y-15906198D02*
X12636729Y-15925246D01*
X12636729Y-15925246D02*
X12646253Y-15934769D01*
X12646253Y-15934769D02*
X12665301Y-15944293D01*
X12665301Y-15944293D02*
X12703396Y-15944293D01*
X12703396Y-15944293D02*
X12722444Y-15934769D01*
X12722444Y-15934769D02*
X12731967Y-15925246D01*
X12731967Y-15925246D02*
X12741491Y-15906198D01*
X12855777Y-15906198D02*
X12836729Y-15896674D01*
X12836729Y-15896674D02*
X12827206Y-15887150D01*
X12827206Y-15887150D02*
X12817682Y-15868103D01*
X12817682Y-15868103D02*
X12817682Y-15858579D01*
X12817682Y-15858579D02*
X12827206Y-15839531D01*
X12827206Y-15839531D02*
X12836729Y-15830008D01*
X12836729Y-15830008D02*
X12855777Y-15820484D01*
X12855777Y-15820484D02*
X12893872Y-15820484D01*
X12893872Y-15820484D02*
X12912920Y-15830008D01*
X12912920Y-15830008D02*
X12922444Y-15839531D01*
X12922444Y-15839531D02*
X12931967Y-15858579D01*
X12931967Y-15858579D02*
X12931967Y-15868103D01*
X12931967Y-15868103D02*
X12922444Y-15887150D01*
X12922444Y-15887150D02*
X12912920Y-15896674D01*
X12912920Y-15896674D02*
X12893872Y-15906198D01*
X12893872Y-15906198D02*
X12855777Y-15906198D01*
X12855777Y-15906198D02*
X12836729Y-15915722D01*
X12836729Y-15915722D02*
X12827206Y-15925246D01*
X12827206Y-15925246D02*
X12817682Y-15944293D01*
X12817682Y-15944293D02*
X12817682Y-15982388D01*
X12817682Y-15982388D02*
X12827206Y-16001436D01*
X12827206Y-16001436D02*
X12836729Y-16010960D01*
X12836729Y-16010960D02*
X12855777Y-16020484D01*
X12855777Y-16020484D02*
X12893872Y-16020484D01*
X12893872Y-16020484D02*
X12912920Y-16010960D01*
X12912920Y-16010960D02*
X12922444Y-16001436D01*
X12922444Y-16001436D02*
X12931967Y-15982388D01*
X12931967Y-15982388D02*
X12931967Y-15944293D01*
X12931967Y-15944293D02*
X12922444Y-15925246D01*
X12922444Y-15925246D02*
X12912920Y-15915722D01*
X12912920Y-15915722D02*
X12893872Y-15906198D01*
X13103396Y-15887150D02*
X13103396Y-16020484D01*
X13055777Y-15810960D02*
X13008158Y-15953817D01*
X13008158Y-15953817D02*
X13131967Y-15953817D01*
X13198634Y-15820484D02*
X13198634Y-15858579D01*
X13274825Y-15820484D02*
X13274825Y-15858579D01*
X13570063Y-16096674D02*
X13560539Y-16087150D01*
X13560539Y-16087150D02*
X13541491Y-16058579D01*
X13541491Y-16058579D02*
X13531968Y-16039531D01*
X13531968Y-16039531D02*
X13522444Y-16010960D01*
X13522444Y-16010960D02*
X13512920Y-15963341D01*
X13512920Y-15963341D02*
X13512920Y-15925246D01*
X13512920Y-15925246D02*
X13522444Y-15877627D01*
X13522444Y-15877627D02*
X13531968Y-15849055D01*
X13531968Y-15849055D02*
X13541491Y-15830008D01*
X13541491Y-15830008D02*
X13560539Y-15801436D01*
X13560539Y-15801436D02*
X13570063Y-15791912D01*
X13731968Y-15887150D02*
X13731968Y-16020484D01*
X13684348Y-15810960D02*
X13636729Y-15953817D01*
X13636729Y-15953817D02*
X13760539Y-15953817D01*
X13989110Y-16020484D02*
X13989110Y-15820484D01*
X14074825Y-16020484D02*
X14074825Y-15915722D01*
X14074825Y-15915722D02*
X14065301Y-15896674D01*
X14065301Y-15896674D02*
X14046253Y-15887150D01*
X14046253Y-15887150D02*
X14017682Y-15887150D01*
X14017682Y-15887150D02*
X13998634Y-15896674D01*
X13998634Y-15896674D02*
X13989110Y-15906198D01*
X14198634Y-16020484D02*
X14179587Y-16010960D01*
X14179587Y-16010960D02*
X14170063Y-16001436D01*
X14170063Y-16001436D02*
X14160539Y-15982388D01*
X14160539Y-15982388D02*
X14160539Y-15925246D01*
X14160539Y-15925246D02*
X14170063Y-15906198D01*
X14170063Y-15906198D02*
X14179587Y-15896674D01*
X14179587Y-15896674D02*
X14198634Y-15887150D01*
X14198634Y-15887150D02*
X14227206Y-15887150D01*
X14227206Y-15887150D02*
X14246253Y-15896674D01*
X14246253Y-15896674D02*
X14255777Y-15906198D01*
X14255777Y-15906198D02*
X14265301Y-15925246D01*
X14265301Y-15925246D02*
X14265301Y-15982388D01*
X14265301Y-15982388D02*
X14255777Y-16001436D01*
X14255777Y-16001436D02*
X14246253Y-16010960D01*
X14246253Y-16010960D02*
X14227206Y-16020484D01*
X14227206Y-16020484D02*
X14198634Y-16020484D01*
X14379587Y-16020484D02*
X14360539Y-16010960D01*
X14360539Y-16010960D02*
X14351015Y-15991912D01*
X14351015Y-15991912D02*
X14351015Y-15820484D01*
X14531968Y-16010960D02*
X14512920Y-16020484D01*
X14512920Y-16020484D02*
X14474825Y-16020484D01*
X14474825Y-16020484D02*
X14455777Y-16010960D01*
X14455777Y-16010960D02*
X14446253Y-15991912D01*
X14446253Y-15991912D02*
X14446253Y-15915722D01*
X14446253Y-15915722D02*
X14455777Y-15896674D01*
X14455777Y-15896674D02*
X14474825Y-15887150D01*
X14474825Y-15887150D02*
X14512920Y-15887150D01*
X14512920Y-15887150D02*
X14531968Y-15896674D01*
X14531968Y-15896674D02*
X14541491Y-15915722D01*
X14541491Y-15915722D02*
X14541491Y-15934769D01*
X14541491Y-15934769D02*
X14446253Y-15953817D01*
X14617682Y-16010960D02*
X14636730Y-16020484D01*
X14636730Y-16020484D02*
X14674825Y-16020484D01*
X14674825Y-16020484D02*
X14693872Y-16010960D01*
X14693872Y-16010960D02*
X14703396Y-15991912D01*
X14703396Y-15991912D02*
X14703396Y-15982388D01*
X14703396Y-15982388D02*
X14693872Y-15963341D01*
X14693872Y-15963341D02*
X14674825Y-15953817D01*
X14674825Y-15953817D02*
X14646253Y-15953817D01*
X14646253Y-15953817D02*
X14627206Y-15944293D01*
X14627206Y-15944293D02*
X14617682Y-15925246D01*
X14617682Y-15925246D02*
X14617682Y-15915722D01*
X14617682Y-15915722D02*
X14627206Y-15896674D01*
X14627206Y-15896674D02*
X14646253Y-15887150D01*
X14646253Y-15887150D02*
X14674825Y-15887150D01*
X14674825Y-15887150D02*
X14693872Y-15896674D01*
X14770063Y-16096674D02*
X14779587Y-16087150D01*
X14779587Y-16087150D02*
X14798634Y-16058579D01*
X14798634Y-16058579D02*
X14808158Y-16039531D01*
X14808158Y-16039531D02*
X14817682Y-16010960D01*
X14817682Y-16010960D02*
X14827206Y-15963341D01*
X14827206Y-15963341D02*
X14827206Y-15925246D01*
X14827206Y-15925246D02*
X14817682Y-15877627D01*
X14817682Y-15877627D02*
X14808158Y-15849055D01*
X14808158Y-15849055D02*
X14798634Y-15830008D01*
X14798634Y-15830008D02*
X14779587Y-15801436D01*
X14779587Y-15801436D02*
X14770063Y-15791912D01*
M02*
